%
M48
M72
T01C0.02362
T02C0.03150
T03C0.03200
T04C0.03937
T05C0.04000
T06C0.07480
%
T01
X36800Y56800
X44300Y66800
X71800Y81800
X76800Y91800
X71800Y106800
X76800Y116800
X51800Y96800
X31800Y101800
X26800Y111800
X36800Y141800
X7781Y146800
X84300Y76800
X106800Y91800
X110381Y81800
X111800Y66800
X136800Y30381
X141800Y26800
X171800Y31800
X186800Y21800
X171800Y76800
X168219Y96800
X166800Y106800
X111800Y151800
X111800Y156562
X104300Y146800
X99300Y151800
X106800Y141800
X99300Y171800
X131800Y179300
X171800Y176800
X106800Y21800
X104300Y11800
T02
X20501Y161721
X23650Y166446
X26800Y161721
X29950Y166446
X33099Y161721
X58926Y186800
X66800Y186800
X74674Y186800
T03
X91800Y141800
X91800Y131800
X91800Y121800
X91800Y111800
X91800Y101800
X91800Y91800
X91800Y81800
X91800Y71800
X91800Y61800
X91800Y51800
X91800Y41800
X91800Y31800
X91800Y21800
X91800Y11800
X76800Y29300
X66800Y29300
X56800Y26800
X44300Y26800
X44300Y56800
X56800Y56800
X121800Y51800
X121800Y41800
X121800Y31800
X121800Y21800
X121800Y11800
X141800Y11800
X151800Y11800
X161800Y11800
X191800Y11800
X156800Y61800
X136800Y61800
X121800Y61800
X121800Y71800
X121800Y81800
X121800Y91800
X121800Y101800
X121800Y111800
X121800Y121800
X121800Y131800
X121800Y141800
X139300Y141800
X139300Y131800
X139300Y169300
X139300Y189300
X116800Y191800
X116800Y181800
X116800Y169300
X106800Y169300
X104300Y184300
X99300Y191800
X94300Y184300
X181800Y181800
X181800Y174300
X181800Y191800
X181800Y144300
T04
X51052Y186800
X82548Y186800
T05
X6800Y136800
X6800Y126800
X6800Y116800
X6800Y106800
X6800Y96800
X6800Y86800
X6800Y76800
X6800Y66800
X6800Y56800
X6800Y46800
X6800Y36800
X6800Y26800
X6800Y16800
X21800Y11800
X41800Y11800
X56800Y11800
X76800Y11800
X71800Y41800
X71800Y51800
X71800Y61800
X193800Y66800
X193800Y76800
X193800Y86800
X193800Y96800
X193800Y106800
X193800Y116800
X193800Y126800
X193800Y136800
T06
X12430Y181800
X41170Y181800
M30
