G75*
%MOIN*%
%OFA0B0*%
%FSLAX25Y25*%
%IPPOS*%
%LPD*%
%AMOC8*
5,1,8,0,0,1.08239X$1,22.5*
%
%ADD10C,0.00000*%
%ADD11OC8,0.05200*%
%ADD12C,0.05200*%
%ADD13C,0.07400*%
%ADD14C,0.05150*%
%ADD15C,0.11220*%
%ADD16C,0.05200*%
%ADD17C,0.05937*%
%ADD18C,0.01600*%
%ADD19C,0.03562*%
D10*
X0001800Y0001800D02*
X0001800Y0198650D01*
X0198650Y0198650D01*
X0198650Y0001800D01*
X0001800Y0001800D01*
D11*
X0044300Y0026800D03*
X0056800Y0026800D03*
X0066800Y0029300D03*
X0076800Y0029300D03*
X0056800Y0056800D03*
X0044300Y0056800D03*
X0139300Y0131800D03*
X0139300Y0141800D03*
X0116800Y0169300D03*
X0106800Y0169300D03*
X0116800Y0181800D03*
X0116800Y0191800D03*
X0104300Y0184300D03*
X0099300Y0191800D03*
X0094300Y0184300D03*
X0139300Y0189300D03*
X0181800Y0191800D03*
X0181800Y0181800D03*
X0181800Y0174300D03*
X0181800Y0144300D03*
X0156800Y0061800D03*
X0151800Y0011800D03*
X0141800Y0011800D03*
X0161800Y0011800D03*
X0191800Y0011800D03*
D12*
X0136800Y0061800D03*
X0139300Y0169300D03*
D13*
X0193800Y0136800D03*
X0193800Y0126800D03*
X0193800Y0116800D03*
X0193800Y0106800D03*
X0193800Y0096800D03*
X0193800Y0086800D03*
X0193800Y0076800D03*
X0193800Y0066800D03*
X0076800Y0011800D03*
X0056800Y0011800D03*
X0041800Y0011800D03*
X0021800Y0011800D03*
X0006800Y0016800D03*
X0006800Y0026800D03*
X0006800Y0036800D03*
X0006800Y0046800D03*
X0006800Y0056800D03*
X0006800Y0066800D03*
X0006800Y0076800D03*
X0006800Y0086800D03*
X0006800Y0096800D03*
X0006800Y0106800D03*
X0006800Y0116800D03*
X0006800Y0126800D03*
X0006800Y0136800D03*
X0071800Y0061800D03*
X0071800Y0051800D03*
X0071800Y0041800D03*
D14*
X0033099Y0161721D03*
X0029950Y0166446D03*
X0026800Y0161721D03*
X0023650Y0166446D03*
X0020501Y0161721D03*
X0058926Y0186800D03*
X0066800Y0186800D03*
X0074674Y0186800D03*
D15*
X0041170Y0181800D03*
X0012430Y0181800D03*
D16*
X0089200Y0141800D02*
X0094400Y0141800D01*
X0094400Y0131800D02*
X0089200Y0131800D01*
X0089200Y0121800D02*
X0094400Y0121800D01*
X0094400Y0111800D02*
X0089200Y0111800D01*
X0089200Y0101800D02*
X0094400Y0101800D01*
X0094400Y0091800D02*
X0089200Y0091800D01*
X0089200Y0081800D02*
X0094400Y0081800D01*
X0094400Y0071800D02*
X0089200Y0071800D01*
X0089200Y0061800D02*
X0094400Y0061800D01*
X0094400Y0051800D02*
X0089200Y0051800D01*
X0089200Y0041800D02*
X0094400Y0041800D01*
X0094400Y0031800D02*
X0089200Y0031800D01*
X0089200Y0021800D02*
X0094400Y0021800D01*
X0094400Y0011800D02*
X0089200Y0011800D01*
X0119200Y0011800D02*
X0124400Y0011800D01*
X0124400Y0021800D02*
X0119200Y0021800D01*
X0119200Y0031800D02*
X0124400Y0031800D01*
X0124400Y0041800D02*
X0119200Y0041800D01*
X0119200Y0051800D02*
X0124400Y0051800D01*
X0124400Y0061800D02*
X0119200Y0061800D01*
X0119200Y0071800D02*
X0124400Y0071800D01*
X0124400Y0081800D02*
X0119200Y0081800D01*
X0119200Y0091800D02*
X0124400Y0091800D01*
X0124400Y0101800D02*
X0119200Y0101800D01*
X0119200Y0111800D02*
X0124400Y0111800D01*
X0124400Y0121800D02*
X0119200Y0121800D01*
X0119200Y0131800D02*
X0124400Y0131800D01*
X0124400Y0141800D02*
X0119200Y0141800D01*
D17*
X0082548Y0186800D03*
X0051052Y0186800D03*
D18*
X0047969Y0183705D02*
X0048577Y0183097D01*
X0050183Y0182431D01*
X0051921Y0182431D01*
X0053527Y0183097D01*
X0054755Y0184325D01*
X0055202Y0185404D01*
X0055556Y0184548D01*
X0056674Y0183430D01*
X0058135Y0182825D01*
X0059717Y0182825D01*
X0061178Y0183430D01*
X0062296Y0184548D01*
X0062863Y0185918D01*
X0063430Y0184548D01*
X0064548Y0183430D01*
X0066009Y0182825D01*
X0067591Y0182825D01*
X0069052Y0183430D01*
X0070170Y0184548D01*
X0070737Y0185918D01*
X0071304Y0184548D01*
X0072422Y0183430D01*
X0073883Y0182825D01*
X0075465Y0182825D01*
X0076926Y0183430D01*
X0078044Y0184548D01*
X0078398Y0185404D01*
X0078845Y0184325D01*
X0080073Y0183097D01*
X0081679Y0182431D01*
X0083417Y0182431D01*
X0085023Y0183097D01*
X0086251Y0184325D01*
X0086917Y0185931D01*
X0086917Y0187669D01*
X0086251Y0189275D01*
X0085023Y0190503D01*
X0083417Y0191168D01*
X0081679Y0191168D01*
X0080073Y0190503D01*
X0078845Y0189275D01*
X0078398Y0188196D01*
X0078044Y0189052D01*
X0076926Y0190170D01*
X0075465Y0190775D01*
X0073883Y0190775D01*
X0072422Y0190170D01*
X0071304Y0189052D01*
X0070737Y0187682D01*
X0070170Y0189052D01*
X0069052Y0190170D01*
X0067591Y0190775D01*
X0066009Y0190775D01*
X0064548Y0190170D01*
X0063430Y0189052D01*
X0062863Y0187682D01*
X0062296Y0189052D01*
X0061178Y0190170D01*
X0059717Y0190775D01*
X0058135Y0190775D01*
X0056674Y0190170D01*
X0055556Y0189052D01*
X0055202Y0188196D01*
X0054755Y0189275D01*
X0053527Y0190503D01*
X0051921Y0191168D01*
X0050183Y0191168D01*
X0048577Y0190503D01*
X0047349Y0189275D01*
X0046683Y0187669D01*
X0046683Y0186201D01*
X0045141Y0187743D01*
X0042564Y0188810D01*
X0039776Y0188810D01*
X0037199Y0187743D01*
X0035227Y0185771D01*
X0034160Y0183194D01*
X0034160Y0180406D01*
X0035227Y0177829D01*
X0037199Y0175857D01*
X0039776Y0174790D01*
X0042564Y0174790D01*
X0045141Y0175857D01*
X0047113Y0177829D01*
X0048180Y0180406D01*
X0048180Y0183194D01*
X0047969Y0183705D01*
X0048180Y0182432D02*
X0050182Y0182432D01*
X0051922Y0182432D02*
X0081678Y0182432D01*
X0083418Y0182432D02*
X0089946Y0182432D01*
X0089900Y0182477D02*
X0092477Y0179900D01*
X0094300Y0179900D01*
X0096123Y0179900D01*
X0098700Y0182477D01*
X0098700Y0184300D01*
X0098700Y0186123D01*
X0096123Y0188700D01*
X0094300Y0188700D01*
X0094300Y0184300D01*
X0098700Y0184300D01*
X0094300Y0184300D01*
X0094300Y0184300D01*
X0094300Y0184300D01*
X0094300Y0179900D01*
X0094300Y0184300D01*
X0094300Y0184300D01*
X0094300Y0184300D01*
X0089900Y0184300D01*
X0089900Y0186123D01*
X0092477Y0188700D01*
X0094300Y0188700D01*
X0094300Y0184300D01*
X0089900Y0184300D01*
X0089900Y0182477D01*
X0089900Y0184030D02*
X0085956Y0184030D01*
X0086791Y0185629D02*
X0089900Y0185629D01*
X0091005Y0187227D02*
X0086917Y0187227D01*
X0086437Y0188826D02*
X0096617Y0188826D01*
X0097643Y0187800D02*
X0100957Y0187800D01*
X0103300Y0190143D01*
X0103300Y0193457D01*
X0100957Y0195800D01*
X0097643Y0195800D01*
X0095300Y0193457D01*
X0095300Y0190143D01*
X0097643Y0187800D01*
X0097595Y0187227D02*
X0101570Y0187227D01*
X0102643Y0188300D02*
X0100300Y0185957D01*
X0100300Y0182643D01*
X0102643Y0180300D01*
X0105957Y0180300D01*
X0108300Y0182643D01*
X0108300Y0185957D01*
X0105957Y0188300D01*
X0102643Y0188300D01*
X0101983Y0188826D02*
X0114117Y0188826D01*
X0115143Y0187800D02*
X0112800Y0190143D01*
X0112800Y0193457D01*
X0115143Y0195800D01*
X0118457Y0195800D01*
X0120800Y0193457D01*
X0120800Y0190143D01*
X0118457Y0187800D01*
X0115143Y0187800D01*
X0114977Y0186200D02*
X0112400Y0183623D01*
X0112400Y0181800D01*
X0116800Y0181800D01*
X0116800Y0181800D01*
X0116800Y0186200D01*
X0118623Y0186200D01*
X0121200Y0183623D01*
X0121200Y0181800D01*
X0116800Y0181800D01*
X0116800Y0181800D01*
X0116800Y0181800D01*
X0116800Y0186200D01*
X0114977Y0186200D01*
X0114406Y0185629D02*
X0108300Y0185629D01*
X0108300Y0184030D02*
X0112808Y0184030D01*
X0112400Y0182432D02*
X0108089Y0182432D01*
X0106490Y0180833D02*
X0112400Y0180833D01*
X0112400Y0179977D02*
X0112400Y0181800D01*
X0116800Y0181800D01*
X0121200Y0181800D01*
X0121200Y0179977D01*
X0118623Y0177400D01*
X0116800Y0177400D01*
X0116800Y0181800D01*
X0116800Y0181800D01*
X0116800Y0177400D01*
X0114977Y0177400D01*
X0112400Y0179977D01*
X0113143Y0179235D02*
X0047695Y0179235D01*
X0048180Y0180833D02*
X0091544Y0180833D01*
X0094300Y0180833D02*
X0094300Y0180833D01*
X0094300Y0182432D02*
X0094300Y0182432D01*
X0094300Y0184030D02*
X0094300Y0184030D01*
X0094300Y0185629D02*
X0094300Y0185629D01*
X0094300Y0187227D02*
X0094300Y0187227D01*
X0095300Y0190424D02*
X0085102Y0190424D01*
X0079994Y0190424D02*
X0076311Y0190424D01*
X0078137Y0188826D02*
X0078659Y0188826D01*
X0079140Y0184030D02*
X0077526Y0184030D01*
X0071823Y0184030D02*
X0069652Y0184030D01*
X0070617Y0185629D02*
X0070857Y0185629D01*
X0071211Y0188826D02*
X0070263Y0188826D01*
X0068437Y0190424D02*
X0073037Y0190424D01*
X0065163Y0190424D02*
X0060563Y0190424D01*
X0062389Y0188826D02*
X0063337Y0188826D01*
X0062983Y0185629D02*
X0062743Y0185629D01*
X0061777Y0184030D02*
X0063948Y0184030D01*
X0057289Y0190424D02*
X0053606Y0190424D01*
X0054941Y0188826D02*
X0055463Y0188826D01*
X0056074Y0184030D02*
X0054460Y0184030D01*
X0048498Y0190424D02*
X0003600Y0190424D01*
X0003600Y0188826D02*
X0047163Y0188826D01*
X0046683Y0187227D02*
X0045657Y0187227D01*
X0036683Y0187227D02*
X0016917Y0187227D01*
X0016401Y0187743D02*
X0013824Y0188810D01*
X0011035Y0188810D01*
X0008459Y0187743D01*
X0006487Y0185771D01*
X0005420Y0183194D01*
X0005420Y0180406D01*
X0006487Y0177829D01*
X0008459Y0175857D01*
X0011035Y0174790D01*
X0013824Y0174790D01*
X0016401Y0175857D01*
X0018373Y0177829D01*
X0019440Y0180406D01*
X0019440Y0183194D01*
X0018373Y0185771D01*
X0016401Y0187743D01*
X0018432Y0185629D02*
X0035168Y0185629D01*
X0034506Y0184030D02*
X0019094Y0184030D01*
X0019440Y0182432D02*
X0034160Y0182432D01*
X0034160Y0180833D02*
X0019440Y0180833D01*
X0018955Y0179235D02*
X0034645Y0179235D01*
X0035420Y0177636D02*
X0018180Y0177636D01*
X0016582Y0176038D02*
X0037018Y0176038D01*
X0030889Y0174000D02*
X0029600Y0172711D01*
X0027750Y0170861D01*
X0027750Y0169837D01*
X0027698Y0169815D01*
X0026800Y0168917D01*
X0025902Y0169815D01*
X0024441Y0170420D01*
X0022860Y0170420D01*
X0021399Y0169815D01*
X0020281Y0168697D01*
X0019676Y0167236D01*
X0019676Y0166020D01*
X0019476Y0165988D01*
X0018821Y0165776D01*
X0018208Y0165463D01*
X0017651Y0165058D01*
X0017164Y0164571D01*
X0016759Y0164014D01*
X0016446Y0163401D01*
X0016234Y0162746D01*
X0016126Y0162066D01*
X0016126Y0161721D01*
X0016126Y0161377D01*
X0016234Y0160697D01*
X0016446Y0160042D01*
X0016759Y0159428D01*
X0017164Y0158871D01*
X0017651Y0158384D01*
X0018208Y0157980D01*
X0018821Y0157667D01*
X0019476Y0157454D01*
X0020156Y0157346D01*
X0020501Y0157346D01*
X0020845Y0157346D01*
X0021525Y0157454D01*
X0022180Y0157667D01*
X0022794Y0157980D01*
X0023351Y0158384D01*
X0023838Y0158871D01*
X0023918Y0158982D01*
X0024548Y0158352D01*
X0026009Y0157746D01*
X0027591Y0157746D01*
X0027642Y0157768D01*
X0031048Y0154362D01*
X0097363Y0154362D01*
X0096603Y0153602D01*
X0096119Y0152433D01*
X0096119Y0151167D01*
X0096603Y0149998D01*
X0097498Y0149103D01*
X0097747Y0149000D01*
X0010080Y0149000D01*
X0009583Y0149497D01*
X0008414Y0149981D01*
X0007148Y0149981D01*
X0005979Y0149497D01*
X0005084Y0148602D01*
X0004600Y0147433D01*
X0004600Y0146167D01*
X0005084Y0144998D01*
X0005979Y0144103D01*
X0007148Y0143619D01*
X0008414Y0143619D01*
X0009583Y0144103D01*
X0010080Y0144600D01*
X0035247Y0144600D01*
X0034998Y0144497D01*
X0034103Y0143602D01*
X0033619Y0142433D01*
X0033619Y0141167D01*
X0034103Y0139998D01*
X0034998Y0139103D01*
X0035247Y0139000D01*
X0011409Y0139000D01*
X0011124Y0139689D01*
X0009689Y0141124D01*
X0007814Y0141900D01*
X0005786Y0141900D01*
X0003911Y0141124D01*
X0003600Y0140812D01*
X0003600Y0196850D01*
X0196850Y0196850D01*
X0196850Y0140962D01*
X0196689Y0141124D01*
X0194814Y0141900D01*
X0192786Y0141900D01*
X0190911Y0141124D01*
X0189476Y0139689D01*
X0188700Y0137814D01*
X0188700Y0135786D01*
X0188985Y0135097D01*
X0177889Y0124000D01*
X0127818Y0124000D01*
X0127791Y0124066D01*
X0126666Y0125191D01*
X0125196Y0125800D01*
X0118404Y0125800D01*
X0116934Y0125191D01*
X0115809Y0124066D01*
X0115200Y0122596D01*
X0115200Y0121004D01*
X0115809Y0119534D01*
X0116934Y0118409D01*
X0118404Y0117800D01*
X0125196Y0117800D01*
X0126666Y0118409D01*
X0127791Y0119534D01*
X0127818Y0119600D01*
X0179711Y0119600D01*
X0189248Y0129136D01*
X0188700Y0127814D01*
X0188700Y0125786D01*
X0188985Y0125097D01*
X0178870Y0114981D01*
X0163411Y0114981D01*
X0162430Y0114000D01*
X0127818Y0114000D01*
X0127791Y0114066D01*
X0126666Y0115191D01*
X0125196Y0115800D01*
X0118404Y0115800D01*
X0116934Y0115191D01*
X0115809Y0114066D01*
X0115200Y0112596D01*
X0115200Y0111004D01*
X0115809Y0109534D01*
X0116934Y0108409D01*
X0118404Y0107800D01*
X0125196Y0107800D01*
X0126666Y0108409D01*
X0127791Y0109534D01*
X0127818Y0109600D01*
X0161424Y0109600D01*
X0155824Y0104000D01*
X0127818Y0104000D01*
X0127791Y0104066D01*
X0126666Y0105191D01*
X0125196Y0105800D01*
X0118404Y0105800D01*
X0116934Y0105191D01*
X0115809Y0104066D01*
X0115200Y0102596D01*
X0115200Y0101004D01*
X0115809Y0099534D01*
X0116934Y0098409D01*
X0118404Y0097800D01*
X0125196Y0097800D01*
X0126666Y0098409D01*
X0127791Y0099534D01*
X0127818Y0099600D01*
X0157647Y0099600D01*
X0163793Y0105746D01*
X0164103Y0104998D01*
X0164998Y0104103D01*
X0166167Y0103619D01*
X0167433Y0103619D01*
X0168602Y0104103D01*
X0169099Y0104600D01*
X0189191Y0104600D01*
X0189476Y0103911D01*
X0190911Y0102476D01*
X0192544Y0101800D01*
X0190911Y0101124D01*
X0189476Y0099689D01*
X0189191Y0099000D01*
X0170518Y0099000D01*
X0170021Y0099497D01*
X0168852Y0099981D01*
X0167586Y0099981D01*
X0166417Y0099497D01*
X0165522Y0098602D01*
X0165038Y0097433D01*
X0165038Y0096167D01*
X0165522Y0094998D01*
X0166417Y0094103D01*
X0167586Y0093619D01*
X0168852Y0093619D01*
X0170021Y0094103D01*
X0170518Y0094600D01*
X0189191Y0094600D01*
X0189476Y0093911D01*
X0190911Y0092476D01*
X0192544Y0091800D01*
X0190911Y0091124D01*
X0189476Y0089689D01*
X0188700Y0087814D01*
X0188700Y0085786D01*
X0189476Y0083911D01*
X0190911Y0082476D01*
X0192544Y0081800D01*
X0190911Y0081124D01*
X0189476Y0079689D01*
X0189191Y0079000D01*
X0174099Y0079000D01*
X0173602Y0079497D01*
X0172433Y0079981D01*
X0171167Y0079981D01*
X0169998Y0079497D01*
X0169103Y0078602D01*
X0168619Y0077433D01*
X0168619Y0076167D01*
X0169103Y0074998D01*
X0169998Y0074103D01*
X0171167Y0073619D01*
X0172433Y0073619D01*
X0173602Y0074103D01*
X0174099Y0074600D01*
X0189191Y0074600D01*
X0189476Y0073911D01*
X0190911Y0072476D01*
X0192037Y0072010D01*
X0191689Y0071897D01*
X0190917Y0071504D01*
X0190217Y0070995D01*
X0189605Y0070383D01*
X0189096Y0069683D01*
X0188703Y0068911D01*
X0188435Y0068088D01*
X0188300Y0067233D01*
X0188300Y0067000D01*
X0193600Y0067000D01*
X0193600Y0066600D01*
X0194000Y0066600D01*
X0194000Y0061300D01*
X0194233Y0061300D01*
X0195088Y0061435D01*
X0195911Y0061703D01*
X0196683Y0062096D01*
X0196850Y0062218D01*
X0196850Y0003600D01*
X0003600Y0003600D01*
X0003600Y0012788D01*
X0003911Y0012476D01*
X0005786Y0011700D01*
X0007814Y0011700D01*
X0009689Y0012476D01*
X0011124Y0013911D01*
X0011900Y0015786D01*
X0011900Y0017814D01*
X0011124Y0019689D01*
X0009689Y0021124D01*
X0008056Y0021800D01*
X0009689Y0022476D01*
X0011124Y0023911D01*
X0011900Y0025786D01*
X0011900Y0027814D01*
X0011124Y0029689D01*
X0009689Y0031124D01*
X0008563Y0031590D01*
X0008911Y0031703D01*
X0009683Y0032096D01*
X0010383Y0032605D01*
X0010995Y0033217D01*
X0011504Y0033917D01*
X0011897Y0034689D01*
X0012165Y0035512D01*
X0012300Y0036367D01*
X0012300Y0036600D01*
X0007000Y0036600D01*
X0007000Y0037000D01*
X0012300Y0037000D01*
X0012300Y0037233D01*
X0012165Y0038088D01*
X0011897Y0038911D01*
X0011504Y0039683D01*
X0010995Y0040383D01*
X0010383Y0040995D01*
X0009683Y0041504D01*
X0008911Y0041897D01*
X0008563Y0042010D01*
X0009689Y0042476D01*
X0011124Y0043911D01*
X0011409Y0044600D01*
X0035211Y0044600D01*
X0043411Y0052800D01*
X0045957Y0052800D01*
X0048300Y0055143D01*
X0048300Y0058457D01*
X0045957Y0060800D01*
X0042643Y0060800D01*
X0040300Y0058457D01*
X0040300Y0055911D01*
X0039575Y0055186D01*
X0039981Y0056167D01*
X0039981Y0057433D01*
X0039497Y0058602D01*
X0038602Y0059497D01*
X0037433Y0059981D01*
X0036167Y0059981D01*
X0034998Y0059497D01*
X0034501Y0059000D01*
X0011409Y0059000D01*
X0011124Y0059689D01*
X0009689Y0061124D01*
X0008563Y0061590D01*
X0008911Y0061703D01*
X0009683Y0062096D01*
X0010383Y0062605D01*
X0010995Y0063217D01*
X0011504Y0063917D01*
X0011897Y0064689D01*
X0012165Y0065512D01*
X0012300Y0066367D01*
X0012300Y0066600D01*
X0007000Y0066600D01*
X0007000Y0067000D01*
X0012300Y0067000D01*
X0012300Y0067233D01*
X0012165Y0068088D01*
X0011897Y0068911D01*
X0011504Y0069683D01*
X0010995Y0070383D01*
X0010383Y0070995D01*
X0009683Y0071504D01*
X0008911Y0071897D01*
X0008563Y0072010D01*
X0009689Y0072476D01*
X0011124Y0073911D01*
X0011409Y0074600D01*
X0012495Y0074600D01*
X0013606Y0073489D01*
X0014895Y0072200D01*
X0035789Y0072200D01*
X0041119Y0066870D01*
X0041119Y0066167D01*
X0041603Y0064998D01*
X0042498Y0064103D01*
X0043667Y0063619D01*
X0044933Y0063619D01*
X0046102Y0064103D01*
X0046599Y0064600D01*
X0067440Y0064600D01*
X0066700Y0062814D01*
X0066700Y0060786D01*
X0067476Y0058911D01*
X0068911Y0057476D01*
X0070037Y0057010D01*
X0069689Y0056897D01*
X0068917Y0056504D01*
X0068217Y0055995D01*
X0067605Y0055383D01*
X0067096Y0054683D01*
X0066703Y0053911D01*
X0066435Y0053088D01*
X0066300Y0052233D01*
X0066300Y0052000D01*
X0071600Y0052000D01*
X0071600Y0051600D01*
X0066300Y0051600D01*
X0066300Y0051367D01*
X0066435Y0050512D01*
X0066703Y0049689D01*
X0067096Y0048917D01*
X0067605Y0048217D01*
X0068217Y0047605D01*
X0068917Y0047096D01*
X0069689Y0046703D01*
X0070037Y0046590D01*
X0068911Y0046124D01*
X0067476Y0044689D01*
X0066700Y0042814D01*
X0066700Y0040786D01*
X0067476Y0038911D01*
X0067688Y0038700D01*
X0065589Y0038700D01*
X0064300Y0037411D01*
X0057689Y0030800D01*
X0055143Y0030800D01*
X0052800Y0028457D01*
X0052800Y0025143D01*
X0055143Y0022800D01*
X0058457Y0022800D01*
X0060800Y0025143D01*
X0060800Y0027689D01*
X0062400Y0029289D01*
X0062400Y0027477D01*
X0064977Y0024900D01*
X0066800Y0024900D01*
X0068623Y0024900D01*
X0071200Y0027477D01*
X0071200Y0029300D01*
X0071200Y0031123D01*
X0068623Y0033700D01*
X0066811Y0033700D01*
X0067411Y0034300D01*
X0074907Y0034300D01*
X0076195Y0035589D01*
X0080207Y0039600D01*
X0085782Y0039600D01*
X0085809Y0039534D01*
X0086934Y0038409D01*
X0088404Y0037800D01*
X0095196Y0037800D01*
X0096666Y0038409D01*
X0097791Y0039534D01*
X0098400Y0041004D01*
X0098400Y0042596D01*
X0097791Y0044066D01*
X0096666Y0045191D01*
X0095196Y0045800D01*
X0088404Y0045800D01*
X0086934Y0045191D01*
X0085809Y0044066D01*
X0085782Y0044000D01*
X0078384Y0044000D01*
X0076900Y0042516D01*
X0076900Y0042814D01*
X0076615Y0043503D01*
X0082711Y0049600D01*
X0085782Y0049600D01*
X0085809Y0049534D01*
X0086934Y0048409D01*
X0088404Y0047800D01*
X0095196Y0047800D01*
X0096666Y0048409D01*
X0097791Y0049534D01*
X0098400Y0051004D01*
X0098400Y0052596D01*
X0097791Y0054066D01*
X0096666Y0055191D01*
X0095196Y0055800D01*
X0088404Y0055800D01*
X0086934Y0055191D01*
X0085809Y0054066D01*
X0085782Y0054000D01*
X0080889Y0054000D01*
X0077051Y0050162D01*
X0077165Y0050512D01*
X0077300Y0051367D01*
X0077300Y0051600D01*
X0072000Y0051600D01*
X0072000Y0052000D01*
X0077300Y0052000D01*
X0077300Y0052233D01*
X0077165Y0053088D01*
X0076897Y0053911D01*
X0076504Y0054683D01*
X0075995Y0055383D01*
X0075383Y0055995D01*
X0074683Y0056504D01*
X0073911Y0056897D01*
X0073563Y0057010D01*
X0074689Y0057476D01*
X0076124Y0058911D01*
X0076409Y0059600D01*
X0085782Y0059600D01*
X0085809Y0059534D01*
X0086934Y0058409D01*
X0088404Y0057800D01*
X0095196Y0057800D01*
X0096666Y0058409D01*
X0097791Y0059534D01*
X0098400Y0061004D01*
X0098400Y0062596D01*
X0097791Y0064066D01*
X0097257Y0064600D01*
X0109501Y0064600D01*
X0109998Y0064103D01*
X0111167Y0063619D01*
X0112433Y0063619D01*
X0113602Y0064103D01*
X0114497Y0064998D01*
X0114981Y0066167D01*
X0114981Y0067433D01*
X0114497Y0068602D01*
X0113602Y0069497D01*
X0112433Y0069981D01*
X0111167Y0069981D01*
X0109998Y0069497D01*
X0109501Y0069000D01*
X0097804Y0069000D01*
X0098163Y0069494D01*
X0098478Y0070111D01*
X0098692Y0070770D01*
X0098800Y0071454D01*
X0098800Y0071800D01*
X0098800Y0072146D01*
X0098692Y0072830D01*
X0098478Y0073489D01*
X0098163Y0074106D01*
X0097756Y0074666D01*
X0097266Y0075156D01*
X0096706Y0075563D01*
X0096089Y0075878D01*
X0095430Y0076092D01*
X0094746Y0076200D01*
X0091800Y0076200D01*
X0091800Y0071800D01*
X0091800Y0071800D01*
X0098800Y0071800D01*
X0091800Y0071800D01*
X0091800Y0071800D01*
X0091800Y0071800D01*
X0084800Y0071800D01*
X0084800Y0072146D01*
X0084908Y0072830D01*
X0085122Y0073489D01*
X0085257Y0073753D01*
X0084933Y0073619D01*
X0083667Y0073619D01*
X0082498Y0074103D01*
X0082001Y0074600D01*
X0039611Y0074600D01*
X0044230Y0069981D01*
X0044933Y0069981D01*
X0046102Y0069497D01*
X0046599Y0069000D01*
X0068393Y0069000D01*
X0068693Y0069300D01*
X0074907Y0069300D01*
X0075207Y0069000D01*
X0085796Y0069000D01*
X0085437Y0069494D01*
X0085122Y0070111D01*
X0084908Y0070770D01*
X0084800Y0071454D01*
X0084800Y0071800D01*
X0091800Y0071800D01*
X0091800Y0076200D01*
X0088854Y0076200D01*
X0088170Y0076092D01*
X0087511Y0075878D01*
X0087321Y0075781D01*
X0087481Y0076167D01*
X0087481Y0077433D01*
X0087106Y0078338D01*
X0088404Y0077800D01*
X0095196Y0077800D01*
X0096666Y0078409D01*
X0097791Y0079534D01*
X0098400Y0081004D01*
X0098400Y0082596D01*
X0097791Y0084066D01*
X0096666Y0085191D01*
X0095196Y0085800D01*
X0088404Y0085800D01*
X0086934Y0085191D01*
X0085809Y0084066D01*
X0085782Y0084000D01*
X0074099Y0084000D01*
X0073602Y0084497D01*
X0072433Y0084981D01*
X0071167Y0084981D01*
X0069998Y0084497D01*
X0069103Y0083602D01*
X0068619Y0082433D01*
X0068619Y0081167D01*
X0069103Y0079998D01*
X0069998Y0079103D01*
X0070247Y0079000D01*
X0017711Y0079000D01*
X0011615Y0085097D01*
X0011900Y0085786D01*
X0011900Y0087814D01*
X0011124Y0089689D01*
X0009689Y0091124D01*
X0008056Y0091800D01*
X0009689Y0092476D01*
X0011124Y0093911D01*
X0011409Y0094600D01*
X0049501Y0094600D01*
X0049998Y0094103D01*
X0051167Y0093619D01*
X0052433Y0093619D01*
X0053602Y0094103D01*
X0054497Y0094998D01*
X0054981Y0096167D01*
X0054981Y0097433D01*
X0054497Y0098602D01*
X0053602Y0099497D01*
X0053353Y0099600D01*
X0085782Y0099600D01*
X0085809Y0099534D01*
X0086934Y0098409D01*
X0088404Y0097800D01*
X0095196Y0097800D01*
X0096666Y0098409D01*
X0097791Y0099534D01*
X0098400Y0101004D01*
X0098400Y0102596D01*
X0097791Y0104066D01*
X0096666Y0105191D01*
X0095196Y0105800D01*
X0088404Y0105800D01*
X0086934Y0105191D01*
X0085809Y0104066D01*
X0085782Y0104000D01*
X0073353Y0104000D01*
X0073602Y0104103D01*
X0074497Y0104998D01*
X0074981Y0106167D01*
X0074981Y0107433D01*
X0074497Y0108602D01*
X0073602Y0109497D01*
X0073353Y0109600D01*
X0085782Y0109600D01*
X0085809Y0109534D01*
X0086934Y0108409D01*
X0088404Y0107800D01*
X0095196Y0107800D01*
X0096666Y0108409D01*
X0097791Y0109534D01*
X0098400Y0111004D01*
X0098400Y0112596D01*
X0097791Y0114066D01*
X0096666Y0115191D01*
X0095196Y0115800D01*
X0088404Y0115800D01*
X0086934Y0115191D01*
X0085809Y0114066D01*
X0085782Y0114000D01*
X0078353Y0114000D01*
X0078602Y0114103D01*
X0079497Y0114998D01*
X0079981Y0116167D01*
X0079981Y0117433D01*
X0079497Y0118602D01*
X0078602Y0119497D01*
X0077433Y0119981D01*
X0076167Y0119981D01*
X0074998Y0119497D01*
X0074501Y0119000D01*
X0011409Y0119000D01*
X0011124Y0119689D01*
X0009689Y0121124D01*
X0008056Y0121800D01*
X0009689Y0122476D01*
X0011124Y0123911D01*
X0011409Y0124600D01*
X0086343Y0124600D01*
X0085809Y0124066D01*
X0085200Y0122596D01*
X0085200Y0121004D01*
X0085809Y0119534D01*
X0086934Y0118409D01*
X0088404Y0117800D01*
X0095196Y0117800D01*
X0096666Y0118409D01*
X0097791Y0119534D01*
X0098400Y0121004D01*
X0098400Y0122596D01*
X0097791Y0124066D01*
X0096666Y0125191D01*
X0095196Y0125800D01*
X0094000Y0125800D01*
X0094000Y0127711D01*
X0093911Y0127800D01*
X0095196Y0127800D01*
X0096666Y0128409D01*
X0097791Y0129534D01*
X0098400Y0131004D01*
X0098400Y0132596D01*
X0097791Y0134066D01*
X0096666Y0135191D01*
X0095196Y0135800D01*
X0094000Y0135800D01*
X0094000Y0137711D01*
X0093911Y0137800D01*
X0095196Y0137800D01*
X0096666Y0138409D01*
X0097791Y0139534D01*
X0098400Y0141004D01*
X0098400Y0142596D01*
X0097791Y0144066D01*
X0097257Y0144600D01*
X0102001Y0144600D01*
X0102498Y0144103D01*
X0103667Y0143619D01*
X0104120Y0143619D01*
X0104103Y0143602D01*
X0103619Y0142433D01*
X0103619Y0141167D01*
X0104103Y0139998D01*
X0104998Y0139103D01*
X0106167Y0138619D01*
X0107433Y0138619D01*
X0108602Y0139103D01*
X0109099Y0139600D01*
X0115782Y0139600D01*
X0115809Y0139534D01*
X0116934Y0138409D01*
X0118404Y0137800D01*
X0125196Y0137800D01*
X0126666Y0138409D01*
X0127791Y0139534D01*
X0127818Y0139600D01*
X0135843Y0139600D01*
X0137643Y0137800D01*
X0140957Y0137800D01*
X0143300Y0140143D01*
X0143300Y0143457D01*
X0140957Y0145800D01*
X0137643Y0145800D01*
X0135843Y0144000D01*
X0127818Y0144000D01*
X0127791Y0144066D01*
X0126666Y0145191D01*
X0125196Y0145800D01*
X0118404Y0145800D01*
X0116934Y0145191D01*
X0115809Y0144066D01*
X0115782Y0144000D01*
X0109099Y0144000D01*
X0108602Y0144497D01*
X0107433Y0144981D01*
X0106980Y0144981D01*
X0106997Y0144998D01*
X0107481Y0146167D01*
X0107481Y0147433D01*
X0106997Y0148602D01*
X0106102Y0149497D01*
X0105853Y0149600D01*
X0109501Y0149600D01*
X0109998Y0149103D01*
X0111167Y0148619D01*
X0112433Y0148619D01*
X0113602Y0149103D01*
X0114497Y0149998D01*
X0114981Y0151167D01*
X0114981Y0152433D01*
X0114497Y0153602D01*
X0113918Y0154181D01*
X0114497Y0154760D01*
X0114981Y0155929D01*
X0114981Y0157195D01*
X0114497Y0158364D01*
X0113602Y0159259D01*
X0112433Y0159743D01*
X0111167Y0159743D01*
X0109998Y0159259D01*
X0109501Y0158762D01*
X0035761Y0158762D01*
X0036469Y0159470D01*
X0037074Y0160931D01*
X0037074Y0162512D01*
X0036469Y0163973D01*
X0035351Y0165091D01*
X0033924Y0165682D01*
X0033924Y0167236D01*
X0033319Y0168697D01*
X0032564Y0169453D01*
X0032711Y0169600D01*
X0097001Y0169600D01*
X0097498Y0169103D01*
X0098667Y0168619D01*
X0099933Y0168619D01*
X0101102Y0169103D01*
X0101997Y0169998D01*
X0102400Y0170971D01*
X0102400Y0169300D01*
X0106800Y0169300D01*
X0106800Y0169300D01*
X0106800Y0173700D01*
X0108623Y0173700D01*
X0111200Y0171123D01*
X0111200Y0169300D01*
X0106800Y0169300D01*
X0106800Y0169300D01*
X0106800Y0173700D01*
X0104977Y0173700D01*
X0102481Y0171204D01*
X0102481Y0172433D01*
X0101997Y0173602D01*
X0101102Y0174497D01*
X0099933Y0174981D01*
X0098667Y0174981D01*
X0097498Y0174497D01*
X0097001Y0174000D01*
X0030889Y0174000D01*
X0029729Y0172841D02*
X0003600Y0172841D01*
X0003600Y0174439D02*
X0097440Y0174439D01*
X0099300Y0171800D02*
X0031800Y0171800D01*
X0029950Y0169950D01*
X0029950Y0166446D01*
X0033924Y0166447D02*
X0103431Y0166447D01*
X0102400Y0167477D02*
X0104977Y0164900D01*
X0106800Y0164900D01*
X0108623Y0164900D01*
X0111200Y0167477D01*
X0111200Y0169300D01*
X0106800Y0169300D01*
X0106800Y0164900D01*
X0106800Y0169300D01*
X0106800Y0169300D01*
X0106800Y0169300D01*
X0102400Y0169300D01*
X0102400Y0167477D01*
X0102400Y0168045D02*
X0033589Y0168045D01*
X0035594Y0164848D02*
X0196850Y0164848D01*
X0196850Y0163250D02*
X0036768Y0163250D01*
X0037074Y0161651D02*
X0196850Y0161651D01*
X0196850Y0160053D02*
X0036710Y0160053D01*
X0031959Y0156562D02*
X0026800Y0161721D01*
X0024446Y0158454D02*
X0023421Y0158454D01*
X0020501Y0158454D02*
X0020501Y0158454D01*
X0020501Y0157346D02*
X0020501Y0161721D01*
X0020501Y0161721D01*
X0020501Y0157346D01*
X0020501Y0160053D02*
X0020501Y0160053D01*
X0020501Y0161651D02*
X0020501Y0161651D01*
X0020501Y0161721D02*
X0016126Y0161721D01*
X0020501Y0161721D01*
X0020501Y0161721D01*
X0017441Y0164848D02*
X0003600Y0164848D01*
X0003600Y0163250D02*
X0016397Y0163250D01*
X0016126Y0161651D02*
X0003600Y0161651D01*
X0003600Y0160053D02*
X0016443Y0160053D01*
X0017581Y0158454D02*
X0003600Y0158454D01*
X0003600Y0156856D02*
X0028554Y0156856D01*
X0030153Y0155257D02*
X0003600Y0155257D01*
X0003600Y0153659D02*
X0096660Y0153659D01*
X0096119Y0152060D02*
X0003600Y0152060D01*
X0003600Y0150462D02*
X0096411Y0150462D01*
X0099300Y0151800D02*
X0111800Y0151800D01*
X0110578Y0148863D02*
X0106736Y0148863D01*
X0107481Y0147265D02*
X0178542Y0147265D01*
X0177400Y0146123D02*
X0177400Y0144300D01*
X0181800Y0144300D01*
X0181800Y0144300D01*
X0181800Y0148700D01*
X0183623Y0148700D01*
X0186200Y0146123D01*
X0186200Y0144300D01*
X0181800Y0144300D01*
X0181800Y0144300D01*
X0181800Y0144300D01*
X0181800Y0148700D01*
X0179977Y0148700D01*
X0177400Y0146123D01*
X0177400Y0145666D02*
X0141091Y0145666D01*
X0142689Y0144068D02*
X0177400Y0144068D01*
X0177400Y0144300D02*
X0177400Y0142477D01*
X0179977Y0139900D01*
X0181800Y0139900D01*
X0183623Y0139900D01*
X0186200Y0142477D01*
X0186200Y0144300D01*
X0181800Y0144300D01*
X0181800Y0139900D01*
X0181800Y0144300D01*
X0181800Y0144300D01*
X0177400Y0144300D01*
X0177408Y0142469D02*
X0143300Y0142469D01*
X0143300Y0140870D02*
X0179007Y0140870D01*
X0181800Y0140870D02*
X0181800Y0140870D01*
X0181800Y0142469D02*
X0181800Y0142469D01*
X0181800Y0144068D02*
X0181800Y0144068D01*
X0181800Y0145666D02*
X0181800Y0145666D01*
X0181800Y0147265D02*
X0181800Y0147265D01*
X0185058Y0147265D02*
X0196850Y0147265D01*
X0196850Y0148863D02*
X0113022Y0148863D01*
X0114689Y0150462D02*
X0196850Y0150462D01*
X0196850Y0152060D02*
X0114981Y0152060D01*
X0114440Y0153659D02*
X0196850Y0153659D01*
X0196850Y0155257D02*
X0114703Y0155257D01*
X0114981Y0156856D02*
X0196850Y0156856D01*
X0196850Y0158454D02*
X0114407Y0158454D01*
X0111800Y0156562D02*
X0031959Y0156562D01*
X0027526Y0169644D02*
X0026074Y0169644D01*
X0028131Y0171242D02*
X0003600Y0171242D01*
X0003600Y0169644D02*
X0021227Y0169644D01*
X0020011Y0168045D02*
X0003600Y0168045D01*
X0003600Y0166447D02*
X0019676Y0166447D01*
X0008278Y0176038D02*
X0003600Y0176038D01*
X0003600Y0177636D02*
X0006680Y0177636D01*
X0005905Y0179235D02*
X0003600Y0179235D01*
X0003600Y0180833D02*
X0005420Y0180833D01*
X0005420Y0182432D02*
X0003600Y0182432D01*
X0003600Y0184030D02*
X0005766Y0184030D01*
X0006428Y0185629D02*
X0003600Y0185629D01*
X0003600Y0187227D02*
X0007943Y0187227D01*
X0003600Y0192023D02*
X0095300Y0192023D01*
X0095465Y0193621D02*
X0003600Y0193621D01*
X0003600Y0195220D02*
X0097063Y0195220D01*
X0101537Y0195220D02*
X0114563Y0195220D01*
X0112965Y0193621D02*
X0103135Y0193621D01*
X0103300Y0192023D02*
X0112800Y0192023D01*
X0112800Y0190424D02*
X0103300Y0190424D01*
X0107030Y0187227D02*
X0135150Y0187227D01*
X0134900Y0187477D02*
X0137477Y0184900D01*
X0139300Y0184900D01*
X0141123Y0184900D01*
X0143700Y0187477D01*
X0143700Y0189300D01*
X0143700Y0191123D01*
X0141123Y0193700D01*
X0139300Y0193700D01*
X0139300Y0189300D01*
X0139300Y0189300D01*
X0143700Y0189300D01*
X0139300Y0189300D01*
X0139300Y0189300D01*
X0139300Y0189300D01*
X0134900Y0189300D01*
X0134900Y0191123D01*
X0137477Y0193700D01*
X0139300Y0193700D01*
X0139300Y0189300D01*
X0139300Y0184900D01*
X0139300Y0189300D01*
X0139300Y0189300D01*
X0134900Y0189300D01*
X0134900Y0187477D01*
X0134900Y0188826D02*
X0119483Y0188826D01*
X0120800Y0190424D02*
X0134900Y0190424D01*
X0135800Y0192023D02*
X0120800Y0192023D01*
X0120635Y0193621D02*
X0137399Y0193621D01*
X0139300Y0193621D02*
X0139300Y0193621D01*
X0139300Y0192023D02*
X0139300Y0192023D01*
X0139300Y0190424D02*
X0139300Y0190424D01*
X0139300Y0188826D02*
X0139300Y0188826D01*
X0139300Y0187227D02*
X0139300Y0187227D01*
X0139300Y0185629D02*
X0139300Y0185629D01*
X0141851Y0185629D02*
X0179972Y0185629D01*
X0180143Y0185800D02*
X0177800Y0183457D01*
X0177800Y0180143D01*
X0179893Y0178050D01*
X0177800Y0175957D01*
X0177800Y0172643D01*
X0180143Y0170300D01*
X0183457Y0170300D01*
X0185800Y0172643D01*
X0185800Y0175957D01*
X0183707Y0178050D01*
X0185800Y0180143D01*
X0185800Y0183457D01*
X0183457Y0185800D01*
X0180143Y0185800D01*
X0180143Y0187800D02*
X0183457Y0187800D01*
X0185800Y0190143D01*
X0185800Y0193457D01*
X0183457Y0195800D01*
X0180143Y0195800D01*
X0177800Y0193457D01*
X0177800Y0190143D01*
X0180143Y0187800D01*
X0179117Y0188826D02*
X0143700Y0188826D01*
X0143700Y0190424D02*
X0177800Y0190424D01*
X0177800Y0192023D02*
X0142800Y0192023D01*
X0141201Y0193621D02*
X0177965Y0193621D01*
X0179563Y0195220D02*
X0119037Y0195220D01*
X0119194Y0185629D02*
X0136749Y0185629D01*
X0133602Y0181997D02*
X0134099Y0181500D01*
X0172711Y0181500D01*
X0174000Y0180211D01*
X0174000Y0179099D01*
X0174497Y0178602D01*
X0174981Y0177433D01*
X0174981Y0176167D01*
X0174497Y0174998D01*
X0173602Y0174103D01*
X0172433Y0173619D01*
X0171167Y0173619D01*
X0169998Y0174103D01*
X0169103Y0174998D01*
X0168619Y0176167D01*
X0168619Y0177100D01*
X0134099Y0177100D01*
X0133602Y0176603D01*
X0132433Y0176119D01*
X0131167Y0176119D01*
X0129998Y0176603D01*
X0129103Y0177498D01*
X0128619Y0178667D01*
X0128619Y0179933D01*
X0129103Y0181102D01*
X0129998Y0181997D01*
X0131167Y0182481D01*
X0132433Y0182481D01*
X0133602Y0181997D01*
X0132552Y0182432D02*
X0177800Y0182432D01*
X0177800Y0180833D02*
X0173378Y0180833D01*
X0174000Y0179235D02*
X0178708Y0179235D01*
X0179479Y0177636D02*
X0174897Y0177636D01*
X0174927Y0176038D02*
X0177881Y0176038D01*
X0177800Y0174439D02*
X0173938Y0174439D01*
X0171800Y0176800D02*
X0171800Y0179300D01*
X0131800Y0179300D01*
X0128992Y0180833D02*
X0121200Y0180833D01*
X0121200Y0182432D02*
X0131048Y0182432D01*
X0128619Y0179235D02*
X0120457Y0179235D01*
X0118859Y0177636D02*
X0129046Y0177636D01*
X0135909Y0171566D02*
X0135300Y0170096D01*
X0135300Y0168504D01*
X0135909Y0167034D01*
X0137034Y0165909D01*
X0138504Y0165300D01*
X0140096Y0165300D01*
X0141566Y0165909D01*
X0142691Y0167034D01*
X0143300Y0168504D01*
X0143300Y0170096D01*
X0142691Y0171566D01*
X0141566Y0172691D01*
X0140096Y0173300D01*
X0138504Y0173300D01*
X0137034Y0172691D01*
X0135909Y0171566D01*
X0135775Y0171242D02*
X0120515Y0171242D01*
X0120800Y0170957D02*
X0118457Y0173300D01*
X0115143Y0173300D01*
X0112800Y0170957D01*
X0112800Y0167643D01*
X0115143Y0165300D01*
X0118457Y0165300D01*
X0120800Y0167643D01*
X0120800Y0170957D01*
X0120800Y0169644D02*
X0135300Y0169644D01*
X0135490Y0168045D02*
X0120800Y0168045D01*
X0119604Y0166447D02*
X0136496Y0166447D01*
X0142104Y0166447D02*
X0196850Y0166447D01*
X0196850Y0168045D02*
X0143110Y0168045D01*
X0143300Y0169644D02*
X0196850Y0169644D01*
X0196850Y0171242D02*
X0184399Y0171242D01*
X0185800Y0172841D02*
X0196850Y0172841D01*
X0196850Y0174439D02*
X0185800Y0174439D01*
X0185719Y0176038D02*
X0196850Y0176038D01*
X0196850Y0177636D02*
X0184121Y0177636D01*
X0184892Y0179235D02*
X0196850Y0179235D01*
X0196850Y0180833D02*
X0185800Y0180833D01*
X0185800Y0182432D02*
X0196850Y0182432D01*
X0196850Y0184030D02*
X0185227Y0184030D01*
X0183628Y0185629D02*
X0196850Y0185629D01*
X0196850Y0187227D02*
X0143450Y0187227D01*
X0141204Y0172841D02*
X0177800Y0172841D01*
X0179201Y0171242D02*
X0142825Y0171242D01*
X0137396Y0172841D02*
X0118916Y0172841D01*
X0114684Y0172841D02*
X0109482Y0172841D01*
X0111080Y0171242D02*
X0113085Y0171242D01*
X0112800Y0169644D02*
X0111200Y0169644D01*
X0111200Y0168045D02*
X0112800Y0168045D01*
X0113996Y0166447D02*
X0110169Y0166447D01*
X0106800Y0166447D02*
X0106800Y0166447D01*
X0106800Y0168045D02*
X0106800Y0168045D01*
X0106800Y0169644D02*
X0106800Y0169644D01*
X0106800Y0171242D02*
X0106800Y0171242D01*
X0106800Y0172841D02*
X0106800Y0172841D01*
X0104118Y0172841D02*
X0102312Y0172841D01*
X0102481Y0171242D02*
X0102520Y0171242D01*
X0102400Y0169644D02*
X0101642Y0169644D01*
X0101160Y0174439D02*
X0169662Y0174439D01*
X0168673Y0176038D02*
X0045322Y0176038D01*
X0046920Y0177636D02*
X0114741Y0177636D01*
X0116800Y0177636D02*
X0116800Y0177636D01*
X0116800Y0179235D02*
X0116800Y0179235D01*
X0116800Y0180833D02*
X0116800Y0180833D01*
X0116800Y0182432D02*
X0116800Y0182432D01*
X0116800Y0184030D02*
X0116800Y0184030D01*
X0116800Y0185629D02*
X0116800Y0185629D01*
X0120792Y0184030D02*
X0178373Y0184030D01*
X0184483Y0188826D02*
X0196850Y0188826D01*
X0196850Y0190424D02*
X0185800Y0190424D01*
X0185800Y0192023D02*
X0196850Y0192023D01*
X0196850Y0193621D02*
X0185635Y0193621D01*
X0184037Y0195220D02*
X0196850Y0195220D01*
X0196850Y0196818D02*
X0003600Y0196818D01*
X0003600Y0148863D02*
X0005345Y0148863D01*
X0004600Y0147265D02*
X0003600Y0147265D01*
X0003600Y0145666D02*
X0004808Y0145666D01*
X0003600Y0144068D02*
X0006065Y0144068D01*
X0009497Y0144068D02*
X0034569Y0144068D01*
X0033634Y0142469D02*
X0003600Y0142469D01*
X0003600Y0140870D02*
X0003658Y0140870D01*
X0006800Y0136800D02*
X0091800Y0136800D01*
X0091800Y0131800D01*
X0091800Y0126800D02*
X0091800Y0121800D01*
X0086852Y0118491D02*
X0079543Y0118491D01*
X0079981Y0116893D02*
X0180782Y0116893D01*
X0182380Y0118491D02*
X0126748Y0118491D01*
X0126416Y0115294D02*
X0179183Y0115294D01*
X0179781Y0112781D02*
X0164323Y0112781D01*
X0163341Y0111800D01*
X0121800Y0111800D01*
X0117184Y0115294D02*
X0096416Y0115294D01*
X0097944Y0113696D02*
X0115656Y0113696D01*
X0115200Y0112097D02*
X0098400Y0112097D01*
X0098191Y0110499D02*
X0115409Y0110499D01*
X0116443Y0108900D02*
X0097157Y0108900D01*
X0095429Y0105703D02*
X0118171Y0105703D01*
X0115848Y0104105D02*
X0097752Y0104105D01*
X0098400Y0102506D02*
X0115200Y0102506D01*
X0115240Y0100908D02*
X0098360Y0100908D01*
X0097566Y0099309D02*
X0116034Y0099309D01*
X0116934Y0095191D02*
X0118404Y0095800D01*
X0125196Y0095800D01*
X0126666Y0095191D01*
X0127791Y0094066D01*
X0128400Y0092596D01*
X0128400Y0091004D01*
X0127791Y0089534D01*
X0126666Y0088409D01*
X0125196Y0087800D01*
X0118404Y0087800D01*
X0116934Y0088409D01*
X0115809Y0089534D01*
X0115782Y0089600D01*
X0109099Y0089600D01*
X0108602Y0089103D01*
X0107433Y0088619D01*
X0106167Y0088619D01*
X0104998Y0089103D01*
X0104103Y0089998D01*
X0103619Y0091167D01*
X0103619Y0092433D01*
X0104103Y0093602D01*
X0104998Y0094497D01*
X0106167Y0094981D01*
X0107433Y0094981D01*
X0108602Y0094497D01*
X0109099Y0094000D01*
X0115782Y0094000D01*
X0115809Y0094066D01*
X0116934Y0095191D01*
X0116257Y0094514D02*
X0108561Y0094514D01*
X0106800Y0091800D02*
X0121800Y0091800D01*
X0125967Y0088120D02*
X0188826Y0088120D01*
X0188700Y0086521D02*
X0011900Y0086521D01*
X0011789Y0084923D02*
X0071026Y0084923D01*
X0072574Y0084923D02*
X0086666Y0084923D01*
X0087633Y0088120D02*
X0011774Y0088120D01*
X0011094Y0089718D02*
X0074383Y0089718D01*
X0074103Y0089998D02*
X0074998Y0089103D01*
X0076167Y0088619D01*
X0077433Y0088619D01*
X0078602Y0089103D01*
X0079099Y0089600D01*
X0085782Y0089600D01*
X0085809Y0089534D01*
X0086934Y0088409D01*
X0088404Y0087800D01*
X0095196Y0087800D01*
X0096666Y0088409D01*
X0097791Y0089534D01*
X0098400Y0091004D01*
X0098400Y0092596D01*
X0097791Y0094066D01*
X0096666Y0095191D01*
X0095196Y0095800D01*
X0088404Y0095800D01*
X0086934Y0095191D01*
X0085809Y0094066D01*
X0085782Y0094000D01*
X0079099Y0094000D01*
X0078602Y0094497D01*
X0077433Y0094981D01*
X0076167Y0094981D01*
X0074998Y0094497D01*
X0074103Y0093602D01*
X0073619Y0092433D01*
X0073619Y0091167D01*
X0074103Y0089998D01*
X0073619Y0091317D02*
X0009223Y0091317D01*
X0010128Y0092915D02*
X0073819Y0092915D01*
X0075039Y0094514D02*
X0054012Y0094514D01*
X0054958Y0096112D02*
X0165061Y0096112D01*
X0165153Y0097711D02*
X0054866Y0097711D01*
X0053790Y0099309D02*
X0086034Y0099309D01*
X0086257Y0094514D02*
X0078561Y0094514D01*
X0076800Y0091800D02*
X0091800Y0091800D01*
X0095967Y0088120D02*
X0117633Y0088120D01*
X0118404Y0085800D02*
X0116934Y0085191D01*
X0115809Y0084066D01*
X0115782Y0084000D01*
X0112680Y0084000D01*
X0112183Y0084497D01*
X0111014Y0084981D01*
X0109748Y0084981D01*
X0108579Y0084497D01*
X0107684Y0083602D01*
X0107200Y0082433D01*
X0107200Y0081167D01*
X0107684Y0079998D01*
X0108579Y0079103D01*
X0109748Y0078619D01*
X0111014Y0078619D01*
X0112183Y0079103D01*
X0112680Y0079600D01*
X0115782Y0079600D01*
X0115809Y0079534D01*
X0116934Y0078409D01*
X0118404Y0077800D01*
X0125196Y0077800D01*
X0126666Y0078409D01*
X0127791Y0079534D01*
X0128400Y0081004D01*
X0128400Y0082596D01*
X0127791Y0084066D01*
X0126666Y0085191D01*
X0125196Y0085800D01*
X0118404Y0085800D01*
X0116666Y0084923D02*
X0111155Y0084923D01*
X0109607Y0084923D02*
X0096934Y0084923D01*
X0098098Y0083324D02*
X0107569Y0083324D01*
X0107200Y0081726D02*
X0098400Y0081726D01*
X0098037Y0080127D02*
X0107631Y0080127D01*
X0110381Y0081800D02*
X0121800Y0081800D01*
X0116815Y0078529D02*
X0096785Y0078529D01*
X0097025Y0075332D02*
X0117273Y0075332D01*
X0116934Y0075191D02*
X0115809Y0074066D01*
X0115200Y0072596D01*
X0115200Y0071004D01*
X0115809Y0069534D01*
X0116934Y0068409D01*
X0118404Y0067800D01*
X0125196Y0067800D01*
X0126666Y0068409D01*
X0127791Y0069534D01*
X0128400Y0071004D01*
X0128400Y0072596D01*
X0127791Y0074066D01*
X0126666Y0075191D01*
X0125196Y0075800D01*
X0118404Y0075800D01*
X0116934Y0075191D01*
X0115671Y0073733D02*
X0098353Y0073733D01*
X0098800Y0072134D02*
X0115200Y0072134D01*
X0115394Y0070536D02*
X0098616Y0070536D01*
X0097715Y0064142D02*
X0109959Y0064142D01*
X0111800Y0066800D02*
X0074295Y0066800D01*
X0073995Y0067100D01*
X0069605Y0067100D01*
X0069305Y0066800D01*
X0044300Y0066800D01*
X0036700Y0074400D01*
X0015806Y0074400D01*
X0013406Y0076800D01*
X0006800Y0076800D01*
X0008863Y0072134D02*
X0035854Y0072134D01*
X0037453Y0070536D02*
X0010842Y0070536D01*
X0011884Y0068937D02*
X0039051Y0068937D01*
X0040650Y0067339D02*
X0012283Y0067339D01*
X0012201Y0065740D02*
X0041296Y0065740D01*
X0042459Y0064142D02*
X0011618Y0064142D01*
X0010298Y0062543D02*
X0066700Y0062543D01*
X0066700Y0060945D02*
X0058878Y0060945D01*
X0058623Y0061200D02*
X0056800Y0061200D01*
X0056800Y0056800D01*
X0056800Y0056800D01*
X0061200Y0056800D01*
X0061200Y0058623D01*
X0058623Y0061200D01*
X0056800Y0061200D02*
X0054977Y0061200D01*
X0052400Y0058623D01*
X0052400Y0056800D01*
X0056800Y0056800D01*
X0056800Y0056800D01*
X0056800Y0056800D01*
X0056800Y0061200D01*
X0056800Y0060945D02*
X0056800Y0060945D01*
X0056800Y0059346D02*
X0056800Y0059346D01*
X0056800Y0057748D02*
X0056800Y0057748D01*
X0056800Y0056800D02*
X0052400Y0056800D01*
X0052400Y0054977D01*
X0054977Y0052400D01*
X0056800Y0052400D01*
X0058623Y0052400D01*
X0061200Y0054977D01*
X0061200Y0056800D01*
X0056800Y0056800D01*
X0056800Y0052400D01*
X0056800Y0056800D01*
X0056800Y0056800D01*
X0056800Y0056149D02*
X0056800Y0056149D01*
X0056800Y0054551D02*
X0056800Y0054551D01*
X0056800Y0052952D02*
X0056800Y0052952D01*
X0059175Y0052952D02*
X0066414Y0052952D01*
X0066302Y0051354D02*
X0041965Y0051354D01*
X0040367Y0049755D02*
X0066681Y0049755D01*
X0067665Y0048157D02*
X0038768Y0048157D01*
X0037170Y0046558D02*
X0069961Y0046558D01*
X0067747Y0044960D02*
X0035571Y0044960D01*
X0034300Y0046800D02*
X0044300Y0056800D01*
X0047708Y0054551D02*
X0052827Y0054551D01*
X0052400Y0056149D02*
X0048300Y0056149D01*
X0048300Y0057748D02*
X0052400Y0057748D01*
X0053124Y0059346D02*
X0047410Y0059346D01*
X0046141Y0064142D02*
X0067250Y0064142D01*
X0067296Y0059346D02*
X0060476Y0059346D01*
X0061200Y0057748D02*
X0068640Y0057748D01*
X0068429Y0056149D02*
X0061200Y0056149D01*
X0060773Y0054551D02*
X0067029Y0054551D01*
X0075171Y0056149D02*
X0118534Y0056149D01*
X0118854Y0056200D02*
X0118170Y0056092D01*
X0117511Y0055878D01*
X0116894Y0055563D01*
X0116334Y0055156D01*
X0115844Y0054666D01*
X0115437Y0054106D01*
X0115122Y0053489D01*
X0114908Y0052830D01*
X0114800Y0052146D01*
X0114800Y0051800D01*
X0121800Y0051800D01*
X0121800Y0051800D01*
X0121800Y0056200D01*
X0124746Y0056200D01*
X0125430Y0056092D01*
X0126089Y0055878D01*
X0126706Y0055563D01*
X0127266Y0055156D01*
X0127756Y0054666D01*
X0128163Y0054106D01*
X0128478Y0053489D01*
X0128692Y0052830D01*
X0128800Y0052146D01*
X0128800Y0051800D01*
X0121800Y0051800D01*
X0121800Y0051800D01*
X0121800Y0047400D01*
X0124746Y0047400D01*
X0125430Y0047508D01*
X0126089Y0047722D01*
X0126706Y0048037D01*
X0127266Y0048444D01*
X0127756Y0048934D01*
X0128163Y0049494D01*
X0128478Y0050111D01*
X0128692Y0050770D01*
X0128800Y0051454D01*
X0128800Y0051800D01*
X0121800Y0051800D01*
X0121800Y0051800D01*
X0121800Y0051800D01*
X0121800Y0056200D01*
X0118854Y0056200D01*
X0118404Y0057800D02*
X0125196Y0057800D01*
X0126666Y0058409D01*
X0127791Y0059534D01*
X0128400Y0061004D01*
X0128400Y0062596D01*
X0127791Y0064066D01*
X0126666Y0065191D01*
X0125196Y0065800D01*
X0118404Y0065800D01*
X0116934Y0065191D01*
X0115809Y0064066D01*
X0115200Y0062596D01*
X0115200Y0061004D01*
X0115809Y0059534D01*
X0116934Y0058409D01*
X0118404Y0057800D01*
X0115997Y0059346D02*
X0097603Y0059346D01*
X0098375Y0060945D02*
X0115225Y0060945D01*
X0115200Y0062543D02*
X0098400Y0062543D01*
X0091800Y0061800D02*
X0071800Y0061800D01*
X0076304Y0059346D02*
X0085997Y0059346D01*
X0086294Y0054551D02*
X0076571Y0054551D01*
X0077186Y0052952D02*
X0079841Y0052952D01*
X0078243Y0051354D02*
X0077298Y0051354D01*
X0081800Y0051800D02*
X0071800Y0041800D01*
X0066700Y0041763D02*
X0009175Y0041763D01*
X0010574Y0043361D02*
X0066927Y0043361D01*
X0066957Y0040164D02*
X0011154Y0040164D01*
X0012009Y0038566D02*
X0065454Y0038566D01*
X0063856Y0036967D02*
X0007000Y0036967D01*
X0011397Y0033770D02*
X0060659Y0033770D01*
X0059060Y0032172D02*
X0009787Y0032172D01*
X0010239Y0030573D02*
X0042416Y0030573D01*
X0042643Y0030800D02*
X0040300Y0028457D01*
X0040300Y0025143D01*
X0042643Y0022800D01*
X0045957Y0022800D01*
X0048300Y0025143D01*
X0048300Y0028457D01*
X0045957Y0030800D01*
X0042643Y0030800D01*
X0040818Y0028975D02*
X0011419Y0028975D01*
X0011900Y0027376D02*
X0040300Y0027376D01*
X0040300Y0025778D02*
X0011897Y0025778D01*
X0011235Y0024179D02*
X0041264Y0024179D01*
X0047336Y0024179D02*
X0053764Y0024179D01*
X0052800Y0025778D02*
X0048300Y0025778D01*
X0048300Y0027376D02*
X0052800Y0027376D01*
X0053318Y0028975D02*
X0047782Y0028975D01*
X0046184Y0030573D02*
X0054916Y0030573D01*
X0056800Y0026800D02*
X0066500Y0036500D01*
X0073995Y0036500D01*
X0079295Y0041800D01*
X0091800Y0041800D01*
X0086777Y0038566D02*
X0079172Y0038566D01*
X0077574Y0036967D02*
X0196850Y0036967D01*
X0196850Y0035369D02*
X0126237Y0035369D01*
X0126666Y0035191D02*
X0125196Y0035800D01*
X0118404Y0035800D01*
X0116934Y0035191D01*
X0115809Y0034066D01*
X0115200Y0032596D01*
X0115200Y0031004D01*
X0115809Y0029534D01*
X0116343Y0029000D01*
X0097257Y0029000D01*
X0097791Y0029534D01*
X0098400Y0031004D01*
X0098400Y0032596D01*
X0097791Y0034066D01*
X0096666Y0035191D01*
X0095196Y0035800D01*
X0088404Y0035800D01*
X0086934Y0035191D01*
X0085809Y0034066D01*
X0085200Y0032596D01*
X0085200Y0031500D01*
X0080257Y0031500D01*
X0078457Y0033300D01*
X0075143Y0033300D01*
X0072800Y0030957D01*
X0072800Y0027643D01*
X0075143Y0025300D01*
X0078457Y0025300D01*
X0080257Y0027100D01*
X0083389Y0027100D01*
X0086116Y0024373D01*
X0085809Y0024066D01*
X0085200Y0022596D01*
X0085200Y0021004D01*
X0085809Y0019534D01*
X0086934Y0018409D01*
X0088404Y0017800D01*
X0095196Y0017800D01*
X0096666Y0018409D01*
X0097791Y0019534D01*
X0097818Y0019600D01*
X0104501Y0019600D01*
X0104998Y0019103D01*
X0106167Y0018619D01*
X0107433Y0018619D01*
X0108602Y0019103D01*
X0109497Y0019998D01*
X0109981Y0021167D01*
X0109981Y0022433D01*
X0109497Y0023602D01*
X0108602Y0024497D01*
X0108353Y0024600D01*
X0116343Y0024600D01*
X0115809Y0024066D01*
X0115200Y0022596D01*
X0115200Y0021004D01*
X0115809Y0019534D01*
X0116934Y0018409D01*
X0118404Y0017800D01*
X0125196Y0017800D01*
X0126666Y0018409D01*
X0127791Y0019534D01*
X0127818Y0019600D01*
X0184501Y0019600D01*
X0184998Y0019103D01*
X0186167Y0018619D01*
X0187433Y0018619D01*
X0188602Y0019103D01*
X0189497Y0019998D01*
X0189981Y0021167D01*
X0189981Y0022433D01*
X0189497Y0023602D01*
X0188602Y0024497D01*
X0187433Y0024981D01*
X0186167Y0024981D01*
X0184998Y0024497D01*
X0184501Y0024000D01*
X0143353Y0024000D01*
X0143602Y0024103D01*
X0144497Y0024998D01*
X0144981Y0026167D01*
X0144981Y0027433D01*
X0144671Y0028181D01*
X0171292Y0028181D01*
X0171730Y0028619D01*
X0172433Y0028619D01*
X0173602Y0029103D01*
X0174497Y0029998D01*
X0174981Y0031167D01*
X0174981Y0032433D01*
X0174497Y0033602D01*
X0173602Y0034497D01*
X0172433Y0034981D01*
X0171167Y0034981D01*
X0169998Y0034497D01*
X0169103Y0033602D01*
X0168680Y0032581D01*
X0139099Y0032581D01*
X0138602Y0033078D01*
X0137433Y0033562D01*
X0136167Y0033562D01*
X0134998Y0033078D01*
X0134103Y0032183D01*
X0133619Y0031014D01*
X0133619Y0029748D01*
X0133929Y0029000D01*
X0127257Y0029000D01*
X0127791Y0029534D01*
X0128400Y0031004D01*
X0128400Y0032596D01*
X0127791Y0034066D01*
X0126666Y0035191D01*
X0127913Y0033770D02*
X0169271Y0033770D01*
X0171800Y0031800D02*
X0170381Y0030381D01*
X0136800Y0030381D01*
X0133619Y0030573D02*
X0128221Y0030573D01*
X0128400Y0032172D02*
X0134098Y0032172D01*
X0126823Y0038566D02*
X0196850Y0038566D01*
X0196850Y0040164D02*
X0128052Y0040164D01*
X0127791Y0039534D02*
X0128400Y0041004D01*
X0128400Y0042596D01*
X0127791Y0044066D01*
X0126666Y0045191D01*
X0125196Y0045800D01*
X0118404Y0045800D01*
X0116934Y0045191D01*
X0115809Y0044066D01*
X0115200Y0042596D01*
X0115200Y0041004D01*
X0115809Y0039534D01*
X0116934Y0038409D01*
X0118404Y0037800D01*
X0125196Y0037800D01*
X0126666Y0038409D01*
X0127791Y0039534D01*
X0128400Y0041763D02*
X0196850Y0041763D01*
X0196850Y0043361D02*
X0128083Y0043361D01*
X0126897Y0044960D02*
X0196850Y0044960D01*
X0196850Y0046558D02*
X0079670Y0046558D01*
X0081268Y0048157D02*
X0087543Y0048157D01*
X0086703Y0044960D02*
X0078071Y0044960D01*
X0077745Y0043361D02*
X0076673Y0043361D01*
X0075975Y0035369D02*
X0087363Y0035369D01*
X0085687Y0033770D02*
X0066881Y0033770D01*
X0070151Y0032172D02*
X0074015Y0032172D01*
X0072800Y0030573D02*
X0071200Y0030573D01*
X0071200Y0029300D02*
X0066800Y0029300D01*
X0066800Y0029300D01*
X0071200Y0029300D01*
X0071200Y0028975D02*
X0072800Y0028975D01*
X0073067Y0027376D02*
X0071099Y0027376D01*
X0069500Y0025778D02*
X0074665Y0025778D01*
X0076800Y0029300D02*
X0084300Y0029300D01*
X0091800Y0021800D01*
X0106800Y0021800D01*
X0108920Y0024179D02*
X0115922Y0024179D01*
X0115200Y0022581D02*
X0109920Y0022581D01*
X0109904Y0020982D02*
X0115209Y0020982D01*
X0115960Y0019384D02*
X0108882Y0019384D01*
X0104718Y0019384D02*
X0097640Y0019384D01*
X0096666Y0015191D02*
X0095196Y0015800D01*
X0088404Y0015800D01*
X0086934Y0015191D01*
X0085809Y0014066D01*
X0085200Y0012596D01*
X0085200Y0011004D01*
X0085809Y0009534D01*
X0086934Y0008409D01*
X0088404Y0007800D01*
X0095196Y0007800D01*
X0096666Y0008409D01*
X0097791Y0009534D01*
X0097818Y0009600D01*
X0102001Y0009600D01*
X0102498Y0009103D01*
X0103667Y0008619D01*
X0104933Y0008619D01*
X0106102Y0009103D01*
X0106997Y0009998D01*
X0107481Y0011167D01*
X0107481Y0012433D01*
X0106997Y0013602D01*
X0106102Y0014497D01*
X0104933Y0014981D01*
X0103667Y0014981D01*
X0102498Y0014497D01*
X0102001Y0014000D01*
X0097818Y0014000D01*
X0097791Y0014066D01*
X0096666Y0015191D01*
X0097269Y0014588D02*
X0102718Y0014588D01*
X0105882Y0014588D02*
X0116331Y0014588D01*
X0115809Y0014066D02*
X0115200Y0012596D01*
X0115200Y0011004D01*
X0115809Y0009534D01*
X0116934Y0008409D01*
X0118404Y0007800D01*
X0125196Y0007800D01*
X0126666Y0008409D01*
X0127791Y0009534D01*
X0128400Y0011004D01*
X0128400Y0012596D01*
X0127791Y0014066D01*
X0126666Y0015191D01*
X0125196Y0015800D01*
X0118404Y0015800D01*
X0116934Y0015191D01*
X0115809Y0014066D01*
X0115363Y0012990D02*
X0107250Y0012990D01*
X0107481Y0011391D02*
X0115200Y0011391D01*
X0115702Y0009793D02*
X0106791Y0009793D01*
X0104300Y0011800D02*
X0091800Y0011800D01*
X0096147Y0008194D02*
X0117453Y0008194D01*
X0126147Y0008194D02*
X0139749Y0008194D01*
X0140143Y0007800D02*
X0143457Y0007800D01*
X0145800Y0010143D01*
X0145800Y0013457D01*
X0143457Y0015800D01*
X0140143Y0015800D01*
X0137800Y0013457D01*
X0137800Y0010143D01*
X0140143Y0007800D01*
X0138151Y0009793D02*
X0127898Y0009793D01*
X0128400Y0011391D02*
X0137800Y0011391D01*
X0137800Y0012990D02*
X0128237Y0012990D01*
X0127269Y0014588D02*
X0138931Y0014588D01*
X0144669Y0014588D02*
X0148931Y0014588D01*
X0147800Y0013457D02*
X0150143Y0015800D01*
X0153457Y0015800D01*
X0155800Y0013457D01*
X0155800Y0010143D01*
X0153457Y0007800D01*
X0150143Y0007800D01*
X0147800Y0010143D01*
X0147800Y0013457D01*
X0147800Y0012990D02*
X0145800Y0012990D01*
X0145800Y0011391D02*
X0147800Y0011391D01*
X0148151Y0009793D02*
X0145449Y0009793D01*
X0143851Y0008194D02*
X0149749Y0008194D01*
X0153851Y0008194D02*
X0159749Y0008194D01*
X0160143Y0007800D02*
X0163457Y0007800D01*
X0165800Y0010143D01*
X0165800Y0013457D01*
X0163457Y0015800D01*
X0160143Y0015800D01*
X0157800Y0013457D01*
X0157800Y0010143D01*
X0160143Y0007800D01*
X0158151Y0009793D02*
X0155449Y0009793D01*
X0155800Y0011391D02*
X0157800Y0011391D01*
X0157800Y0012990D02*
X0155800Y0012990D01*
X0154669Y0014588D02*
X0158931Y0014588D01*
X0164669Y0014588D02*
X0188366Y0014588D01*
X0187400Y0013623D02*
X0187400Y0011800D01*
X0191800Y0011800D01*
X0196200Y0011800D01*
X0196200Y0013623D01*
X0193623Y0016200D01*
X0191800Y0016200D01*
X0191800Y0011800D01*
X0191800Y0011800D01*
X0191800Y0011800D01*
X0196200Y0011800D01*
X0196200Y0009977D01*
X0193623Y0007400D01*
X0191800Y0007400D01*
X0191800Y0011800D01*
X0191800Y0011800D01*
X0191800Y0011800D01*
X0191800Y0016200D01*
X0189977Y0016200D01*
X0187400Y0013623D01*
X0187400Y0012990D02*
X0165800Y0012990D01*
X0165800Y0011391D02*
X0187400Y0011391D01*
X0187400Y0011800D02*
X0187400Y0009977D01*
X0189977Y0007400D01*
X0191800Y0007400D01*
X0191800Y0011800D01*
X0187400Y0011800D01*
X0187585Y0009793D02*
X0165449Y0009793D01*
X0163851Y0008194D02*
X0189183Y0008194D01*
X0191800Y0008194D02*
X0191800Y0008194D01*
X0191800Y0009793D02*
X0191800Y0009793D01*
X0191800Y0011391D02*
X0191800Y0011391D01*
X0191800Y0012990D02*
X0191800Y0012990D01*
X0191800Y0014588D02*
X0191800Y0014588D01*
X0191800Y0016187D02*
X0191800Y0016187D01*
X0193636Y0016187D02*
X0196850Y0016187D01*
X0196850Y0017785D02*
X0011900Y0017785D01*
X0011900Y0016187D02*
X0018480Y0016187D01*
X0018217Y0015995D02*
X0017605Y0015383D01*
X0017096Y0014683D01*
X0016703Y0013911D01*
X0016435Y0013088D01*
X0016300Y0012233D01*
X0016300Y0012000D01*
X0021600Y0012000D01*
X0021600Y0017300D01*
X0021367Y0017300D01*
X0020512Y0017165D01*
X0019689Y0016897D01*
X0018917Y0016504D01*
X0018217Y0015995D01*
X0017048Y0014588D02*
X0011404Y0014588D01*
X0010202Y0012990D02*
X0016420Y0012990D01*
X0016300Y0011600D02*
X0016300Y0011367D01*
X0016435Y0010512D01*
X0016703Y0009689D01*
X0017096Y0008917D01*
X0017605Y0008217D01*
X0018217Y0007605D01*
X0018917Y0007096D01*
X0019689Y0006703D01*
X0020512Y0006435D01*
X0021367Y0006300D01*
X0021600Y0006300D01*
X0021600Y0011600D01*
X0016300Y0011600D01*
X0016300Y0011391D02*
X0003600Y0011391D01*
X0003600Y0009793D02*
X0016669Y0009793D01*
X0017628Y0008194D02*
X0003600Y0008194D01*
X0003600Y0006596D02*
X0020019Y0006596D01*
X0021600Y0006596D02*
X0022000Y0006596D01*
X0022000Y0006300D02*
X0022233Y0006300D01*
X0023088Y0006435D01*
X0023911Y0006703D01*
X0024683Y0007096D01*
X0025383Y0007605D01*
X0025995Y0008217D01*
X0026504Y0008917D01*
X0026897Y0009689D01*
X0027165Y0010512D01*
X0027300Y0011367D01*
X0027300Y0011600D01*
X0022000Y0011600D01*
X0022000Y0012000D01*
X0021600Y0012000D01*
X0021600Y0011600D01*
X0022000Y0011600D01*
X0022000Y0006300D01*
X0023581Y0006596D02*
X0196850Y0006596D01*
X0196850Y0008194D02*
X0194417Y0008194D01*
X0196015Y0009793D02*
X0196850Y0009793D01*
X0196850Y0011391D02*
X0196200Y0011391D01*
X0196200Y0012990D02*
X0196850Y0012990D01*
X0196850Y0014588D02*
X0195234Y0014588D01*
X0196850Y0019384D02*
X0188882Y0019384D01*
X0189904Y0020982D02*
X0196850Y0020982D01*
X0196850Y0022581D02*
X0189920Y0022581D01*
X0188920Y0024179D02*
X0196850Y0024179D01*
X0196850Y0025778D02*
X0144820Y0025778D01*
X0144981Y0027376D02*
X0196850Y0027376D01*
X0196850Y0028975D02*
X0173292Y0028975D01*
X0174735Y0030573D02*
X0196850Y0030573D01*
X0196850Y0032172D02*
X0174981Y0032172D01*
X0174329Y0033770D02*
X0196850Y0033770D01*
X0184680Y0024179D02*
X0143678Y0024179D01*
X0141800Y0026800D02*
X0091800Y0026800D01*
X0091800Y0031800D01*
X0096237Y0035369D02*
X0117363Y0035369D01*
X0115687Y0033770D02*
X0097913Y0033770D01*
X0098400Y0032172D02*
X0115200Y0032172D01*
X0115379Y0030573D02*
X0098221Y0030573D01*
X0096823Y0038566D02*
X0116777Y0038566D01*
X0115548Y0040164D02*
X0098052Y0040164D01*
X0098400Y0041763D02*
X0115200Y0041763D01*
X0115517Y0043361D02*
X0098083Y0043361D01*
X0096897Y0044960D02*
X0116703Y0044960D01*
X0117511Y0047722D02*
X0118170Y0047508D01*
X0118854Y0047400D01*
X0121800Y0047400D01*
X0121800Y0051800D01*
X0114800Y0051800D01*
X0114800Y0051454D01*
X0114908Y0050770D01*
X0115122Y0050111D01*
X0115437Y0049494D01*
X0115844Y0048934D01*
X0116334Y0048444D01*
X0116894Y0048037D01*
X0117511Y0047722D01*
X0116729Y0048157D02*
X0096057Y0048157D01*
X0097883Y0049755D02*
X0115304Y0049755D01*
X0114816Y0051354D02*
X0098400Y0051354D01*
X0098252Y0052952D02*
X0114948Y0052952D01*
X0115760Y0054551D02*
X0097306Y0054551D01*
X0091800Y0051800D02*
X0081800Y0051800D01*
X0074960Y0057748D02*
X0154630Y0057748D01*
X0154977Y0057400D02*
X0152400Y0059977D01*
X0152400Y0061800D01*
X0156800Y0061800D01*
X0161200Y0061800D01*
X0161200Y0063623D01*
X0158623Y0066200D01*
X0156800Y0066200D01*
X0156800Y0061800D01*
X0156800Y0061800D01*
X0156800Y0061800D01*
X0161200Y0061800D01*
X0161200Y0059977D01*
X0158623Y0057400D01*
X0156800Y0057400D01*
X0156800Y0061800D01*
X0156800Y0061800D01*
X0156800Y0061800D01*
X0156800Y0066200D01*
X0154977Y0066200D01*
X0152400Y0063623D01*
X0152400Y0061800D01*
X0156800Y0061800D01*
X0156800Y0057400D01*
X0154977Y0057400D01*
X0156800Y0057748D02*
X0156800Y0057748D01*
X0156800Y0059346D02*
X0156800Y0059346D01*
X0156800Y0060945D02*
X0156800Y0060945D01*
X0156800Y0062543D02*
X0156800Y0062543D01*
X0156800Y0064142D02*
X0156800Y0064142D01*
X0156800Y0065740D02*
X0156800Y0065740D01*
X0154518Y0065740D02*
X0137739Y0065740D01*
X0137596Y0065800D02*
X0136004Y0065800D01*
X0134534Y0065191D01*
X0133409Y0064066D01*
X0132800Y0062596D01*
X0132800Y0061004D01*
X0133409Y0059534D01*
X0134534Y0058409D01*
X0136004Y0057800D01*
X0137596Y0057800D01*
X0139066Y0058409D01*
X0140191Y0059534D01*
X0140800Y0061004D01*
X0140800Y0062596D01*
X0140191Y0064066D01*
X0139066Y0065191D01*
X0137596Y0065800D01*
X0135861Y0065740D02*
X0125339Y0065740D01*
X0127715Y0064142D02*
X0133485Y0064142D01*
X0132800Y0062543D02*
X0128400Y0062543D01*
X0128375Y0060945D02*
X0132825Y0060945D01*
X0133597Y0059346D02*
X0127603Y0059346D01*
X0125066Y0056149D02*
X0196850Y0056149D01*
X0196850Y0054551D02*
X0127840Y0054551D01*
X0128652Y0052952D02*
X0196850Y0052952D01*
X0196850Y0051354D02*
X0128784Y0051354D01*
X0128296Y0049755D02*
X0196850Y0049755D01*
X0196850Y0048157D02*
X0126871Y0048157D01*
X0121800Y0048157D02*
X0121800Y0048157D01*
X0121800Y0049755D02*
X0121800Y0049755D01*
X0121800Y0051354D02*
X0121800Y0051354D01*
X0121800Y0052952D02*
X0121800Y0052952D01*
X0121800Y0054551D02*
X0121800Y0054551D01*
X0121800Y0056149D02*
X0121800Y0056149D01*
X0115885Y0064142D02*
X0113641Y0064142D01*
X0114804Y0065740D02*
X0118261Y0065740D01*
X0114981Y0067339D02*
X0188317Y0067339D01*
X0188300Y0066600D02*
X0188300Y0066367D01*
X0188435Y0065512D01*
X0188703Y0064689D01*
X0189096Y0063917D01*
X0189605Y0063217D01*
X0190217Y0062605D01*
X0190917Y0062096D01*
X0191689Y0061703D01*
X0192512Y0061435D01*
X0193367Y0061300D01*
X0193600Y0061300D01*
X0193600Y0066600D01*
X0188300Y0066600D01*
X0188399Y0065740D02*
X0159082Y0065740D01*
X0160681Y0064142D02*
X0188982Y0064142D01*
X0190302Y0062543D02*
X0161200Y0062543D01*
X0161200Y0060945D02*
X0196850Y0060945D01*
X0196850Y0059346D02*
X0160569Y0059346D01*
X0158970Y0057748D02*
X0196850Y0057748D01*
X0194000Y0062543D02*
X0193600Y0062543D01*
X0193600Y0064142D02*
X0194000Y0064142D01*
X0194000Y0065740D02*
X0193600Y0065740D01*
X0189758Y0070536D02*
X0128206Y0070536D01*
X0128400Y0072134D02*
X0191737Y0072134D01*
X0189654Y0073733D02*
X0172708Y0073733D01*
X0170892Y0073733D02*
X0127929Y0073733D01*
X0126327Y0075332D02*
X0168965Y0075332D01*
X0168619Y0076930D02*
X0087481Y0076930D01*
X0085247Y0073733D02*
X0085208Y0073733D01*
X0084800Y0072134D02*
X0042077Y0072134D01*
X0043675Y0070536D02*
X0084984Y0070536D01*
X0083392Y0073733D02*
X0040478Y0073733D01*
X0041190Y0059346D02*
X0038752Y0059346D01*
X0039851Y0057748D02*
X0040300Y0057748D01*
X0040300Y0056149D02*
X0039974Y0056149D01*
X0036800Y0056800D02*
X0006800Y0056800D01*
X0011265Y0059346D02*
X0034848Y0059346D01*
X0046109Y0052952D02*
X0054425Y0052952D01*
X0054722Y0060945D02*
X0009868Y0060945D01*
X0010945Y0073733D02*
X0013362Y0073733D01*
X0016800Y0076800D02*
X0006800Y0086800D01*
X0013387Y0083324D02*
X0068988Y0083324D01*
X0068619Y0081726D02*
X0014986Y0081726D01*
X0016584Y0080127D02*
X0069050Y0080127D01*
X0071800Y0081800D02*
X0091800Y0081800D01*
X0091800Y0075332D02*
X0091800Y0075332D01*
X0091800Y0073733D02*
X0091800Y0073733D01*
X0091800Y0072134D02*
X0091800Y0072134D01*
X0084300Y0076800D02*
X0016800Y0076800D01*
X0011373Y0094514D02*
X0049588Y0094514D01*
X0051800Y0096800D02*
X0006800Y0096800D01*
X0006800Y0106800D02*
X0071800Y0106800D01*
X0074198Y0108900D02*
X0086443Y0108900D01*
X0088171Y0105703D02*
X0074789Y0105703D01*
X0074981Y0107302D02*
X0159126Y0107302D01*
X0160725Y0108900D02*
X0127157Y0108900D01*
X0125429Y0105703D02*
X0157528Y0105703D01*
X0155929Y0104105D02*
X0127752Y0104105D01*
X0127566Y0099309D02*
X0166229Y0099309D01*
X0168219Y0096800D02*
X0193800Y0096800D01*
X0189227Y0094514D02*
X0170431Y0094514D01*
X0166006Y0094514D02*
X0127343Y0094514D01*
X0128268Y0092915D02*
X0190472Y0092915D01*
X0191377Y0091317D02*
X0128400Y0091317D01*
X0127867Y0089718D02*
X0189506Y0089718D01*
X0189057Y0084923D02*
X0126934Y0084923D01*
X0128098Y0083324D02*
X0190063Y0083324D01*
X0192364Y0081726D02*
X0128400Y0081726D01*
X0128037Y0080127D02*
X0189915Y0080127D01*
X0193800Y0076800D02*
X0171800Y0076800D01*
X0169073Y0078529D02*
X0126785Y0078529D01*
X0127194Y0068937D02*
X0188716Y0068937D01*
X0189319Y0099309D02*
X0170208Y0099309D01*
X0168603Y0104105D02*
X0189396Y0104105D01*
X0190881Y0102506D02*
X0160553Y0102506D01*
X0158955Y0100908D02*
X0190695Y0100908D01*
X0193800Y0106800D02*
X0166800Y0106800D01*
X0163811Y0105703D02*
X0163750Y0105703D01*
X0164997Y0104105D02*
X0162152Y0104105D01*
X0156736Y0101800D02*
X0165317Y0110381D01*
X0187381Y0110381D01*
X0193800Y0116800D01*
X0187176Y0123287D02*
X0183398Y0123287D01*
X0184997Y0124885D02*
X0188774Y0124885D01*
X0188700Y0126484D02*
X0186595Y0126484D01*
X0188194Y0128082D02*
X0188811Y0128082D01*
X0185168Y0131279D02*
X0143700Y0131279D01*
X0143700Y0131800D02*
X0139300Y0131800D01*
X0139300Y0131800D01*
X0139300Y0136200D01*
X0141123Y0136200D01*
X0143700Y0133623D01*
X0143700Y0131800D01*
X0139300Y0131800D01*
X0139300Y0131800D01*
X0139300Y0131800D01*
X0134900Y0131800D01*
X0134900Y0133623D01*
X0137477Y0136200D01*
X0139300Y0136200D01*
X0139300Y0131800D01*
X0139300Y0127400D01*
X0141123Y0127400D01*
X0143700Y0129977D01*
X0143700Y0131800D01*
X0143700Y0132878D02*
X0186767Y0132878D01*
X0188365Y0134476D02*
X0142846Y0134476D01*
X0141248Y0136075D02*
X0188700Y0136075D01*
X0188700Y0137673D02*
X0094000Y0137673D01*
X0094000Y0136075D02*
X0118118Y0136075D01*
X0118170Y0136092D02*
X0117511Y0135878D01*
X0116894Y0135563D01*
X0116334Y0135156D01*
X0115844Y0134666D01*
X0115437Y0134106D01*
X0115122Y0133489D01*
X0114908Y0132830D01*
X0114800Y0132146D01*
X0114800Y0131800D01*
X0121800Y0131800D01*
X0121800Y0131800D01*
X0121800Y0136200D01*
X0124746Y0136200D01*
X0125430Y0136092D01*
X0126089Y0135878D01*
X0126706Y0135563D01*
X0127266Y0135156D01*
X0127756Y0134666D01*
X0128163Y0134106D01*
X0128478Y0133489D01*
X0128692Y0132830D01*
X0128800Y0132146D01*
X0128800Y0131800D01*
X0121800Y0131800D01*
X0121800Y0131800D01*
X0121800Y0127400D01*
X0124746Y0127400D01*
X0125430Y0127508D01*
X0126089Y0127722D01*
X0126706Y0128037D01*
X0127266Y0128444D01*
X0127756Y0128934D01*
X0128163Y0129494D01*
X0128478Y0130111D01*
X0128692Y0130770D01*
X0128800Y0131454D01*
X0128800Y0131800D01*
X0121800Y0131800D01*
X0121800Y0131800D01*
X0121800Y0131800D01*
X0121800Y0136200D01*
X0118854Y0136200D01*
X0118170Y0136092D01*
X0115706Y0134476D02*
X0097380Y0134476D01*
X0098283Y0132878D02*
X0114924Y0132878D01*
X0114800Y0131800D02*
X0114800Y0131454D01*
X0114908Y0130770D01*
X0115122Y0130111D01*
X0115437Y0129494D01*
X0115844Y0128934D01*
X0116334Y0128444D01*
X0116894Y0128037D01*
X0117511Y0127722D01*
X0118170Y0127508D01*
X0118854Y0127400D01*
X0121800Y0127400D01*
X0121800Y0131800D01*
X0114800Y0131800D01*
X0114828Y0131279D02*
X0098400Y0131279D01*
X0097852Y0129681D02*
X0115341Y0129681D01*
X0116831Y0128082D02*
X0095877Y0128082D01*
X0094000Y0126484D02*
X0180373Y0126484D01*
X0181971Y0128082D02*
X0141805Y0128082D01*
X0143403Y0129681D02*
X0183570Y0129681D01*
X0178774Y0124885D02*
X0126971Y0124885D01*
X0126769Y0128082D02*
X0136795Y0128082D01*
X0137477Y0127400D02*
X0134900Y0129977D01*
X0134900Y0131800D01*
X0139300Y0131800D01*
X0139300Y0131800D01*
X0139300Y0127400D01*
X0137477Y0127400D01*
X0139300Y0128082D02*
X0139300Y0128082D01*
X0139300Y0129681D02*
X0139300Y0129681D01*
X0139300Y0131279D02*
X0139300Y0131279D01*
X0139300Y0132878D02*
X0139300Y0132878D01*
X0139300Y0134476D02*
X0139300Y0134476D01*
X0139300Y0136075D02*
X0139300Y0136075D01*
X0137352Y0136075D02*
X0125482Y0136075D01*
X0127894Y0134476D02*
X0135754Y0134476D01*
X0134900Y0132878D02*
X0128676Y0132878D01*
X0128772Y0131279D02*
X0134900Y0131279D01*
X0135197Y0129681D02*
X0128258Y0129681D01*
X0121800Y0129681D02*
X0121800Y0129681D01*
X0121800Y0131279D02*
X0121800Y0131279D01*
X0121800Y0132878D02*
X0121800Y0132878D01*
X0121800Y0134476D02*
X0121800Y0134476D01*
X0121800Y0136075D02*
X0121800Y0136075D01*
X0121800Y0141800D02*
X0139300Y0141800D01*
X0142429Y0139272D02*
X0189304Y0139272D01*
X0190658Y0140870D02*
X0184593Y0140870D01*
X0186192Y0142469D02*
X0196850Y0142469D01*
X0196850Y0144068D02*
X0186200Y0144068D01*
X0186200Y0145666D02*
X0196850Y0145666D01*
X0193800Y0136800D02*
X0178800Y0121800D01*
X0121800Y0121800D01*
X0116852Y0118491D02*
X0096748Y0118491D01*
X0098021Y0120090D02*
X0115579Y0120090D01*
X0115200Y0121688D02*
X0098400Y0121688D01*
X0098114Y0123287D02*
X0115486Y0123287D01*
X0116629Y0124885D02*
X0096971Y0124885D01*
X0091800Y0126800D02*
X0006800Y0126800D01*
X0010499Y0123287D02*
X0085486Y0123287D01*
X0085200Y0121688D02*
X0008325Y0121688D01*
X0010723Y0120090D02*
X0085579Y0120090D01*
X0087184Y0115294D02*
X0079620Y0115294D01*
X0076800Y0116800D02*
X0006800Y0116800D01*
X0026800Y0111800D02*
X0091800Y0111800D01*
X0085848Y0104105D02*
X0073603Y0104105D01*
X0091800Y0101800D02*
X0031800Y0101800D01*
X0034829Y0139272D02*
X0011296Y0139272D01*
X0009942Y0140870D02*
X0033742Y0140870D01*
X0036800Y0141800D02*
X0091800Y0141800D01*
X0097529Y0139272D02*
X0104829Y0139272D01*
X0103742Y0140870D02*
X0098345Y0140870D01*
X0098400Y0142469D02*
X0103634Y0142469D01*
X0102584Y0144068D02*
X0097789Y0144068D01*
X0104300Y0146800D02*
X0007781Y0146800D01*
X0097056Y0180833D02*
X0102110Y0180833D01*
X0100511Y0182432D02*
X0098654Y0182432D01*
X0098700Y0184030D02*
X0100300Y0184030D01*
X0100300Y0185629D02*
X0098700Y0185629D01*
X0107273Y0145666D02*
X0118081Y0145666D01*
X0115811Y0144068D02*
X0109031Y0144068D01*
X0106800Y0141800D02*
X0121800Y0141800D01*
X0125519Y0145666D02*
X0137509Y0145666D01*
X0135911Y0144068D02*
X0127789Y0144068D01*
X0127529Y0139272D02*
X0136171Y0139272D01*
X0121800Y0128082D02*
X0121800Y0128082D01*
X0116071Y0139272D02*
X0108771Y0139272D01*
X0121800Y0101800D02*
X0156736Y0101800D01*
X0179781Y0112781D02*
X0193800Y0126800D01*
X0185577Y0121688D02*
X0181800Y0121688D01*
X0180201Y0120090D02*
X0183979Y0120090D01*
X0152919Y0064142D02*
X0140115Y0064142D01*
X0140800Y0062543D02*
X0152400Y0062543D01*
X0152400Y0060945D02*
X0140775Y0060945D01*
X0140003Y0059346D02*
X0153031Y0059346D01*
X0116406Y0068937D02*
X0114161Y0068937D01*
X0104383Y0089718D02*
X0097867Y0089718D01*
X0098400Y0091317D02*
X0103619Y0091317D01*
X0103819Y0092915D02*
X0098268Y0092915D01*
X0097343Y0094514D02*
X0105039Y0094514D01*
X0062257Y0035369D02*
X0012118Y0035369D01*
X0006800Y0046800D02*
X0034300Y0046800D01*
X0059836Y0024179D02*
X0085922Y0024179D01*
X0085200Y0022581D02*
X0009793Y0022581D01*
X0009830Y0020982D02*
X0085209Y0020982D01*
X0085960Y0019384D02*
X0011250Y0019384D01*
X0021600Y0016187D02*
X0022000Y0016187D01*
X0022000Y0017300D02*
X0022000Y0012000D01*
X0027300Y0012000D01*
X0027300Y0012233D01*
X0027165Y0013088D01*
X0026897Y0013911D01*
X0026504Y0014683D01*
X0025995Y0015383D01*
X0025383Y0015995D01*
X0024683Y0016504D01*
X0023911Y0016897D01*
X0023088Y0017165D01*
X0022233Y0017300D01*
X0022000Y0017300D01*
X0022000Y0014588D02*
X0021600Y0014588D01*
X0021600Y0012990D02*
X0022000Y0012990D01*
X0022000Y0011391D02*
X0021600Y0011391D01*
X0021600Y0009793D02*
X0022000Y0009793D01*
X0022000Y0008194D02*
X0021600Y0008194D01*
X0025972Y0008194D02*
X0038193Y0008194D01*
X0037476Y0008911D02*
X0038911Y0007476D01*
X0040786Y0006700D01*
X0042814Y0006700D01*
X0044689Y0007476D01*
X0046124Y0008911D01*
X0046900Y0010786D01*
X0046900Y0012814D01*
X0046124Y0014689D01*
X0044689Y0016124D01*
X0042814Y0016900D01*
X0040786Y0016900D01*
X0038911Y0016124D01*
X0037476Y0014689D01*
X0036700Y0012814D01*
X0036700Y0010786D01*
X0037476Y0008911D01*
X0037111Y0009793D02*
X0026931Y0009793D01*
X0027300Y0011391D02*
X0036700Y0011391D01*
X0036773Y0012990D02*
X0027180Y0012990D01*
X0026552Y0014588D02*
X0037435Y0014588D01*
X0039063Y0016187D02*
X0025120Y0016187D01*
X0044537Y0016187D02*
X0054063Y0016187D01*
X0053911Y0016124D02*
X0052476Y0014689D01*
X0051700Y0012814D01*
X0051700Y0010786D01*
X0052476Y0008911D01*
X0053911Y0007476D01*
X0055786Y0006700D01*
X0057814Y0006700D01*
X0059689Y0007476D01*
X0061124Y0008911D01*
X0061900Y0010786D01*
X0061900Y0012814D01*
X0061124Y0014689D01*
X0059689Y0016124D01*
X0057814Y0016900D01*
X0055786Y0016900D01*
X0053911Y0016124D01*
X0052435Y0014588D02*
X0046165Y0014588D01*
X0046827Y0012990D02*
X0051773Y0012990D01*
X0051700Y0011391D02*
X0046900Y0011391D01*
X0046489Y0009793D02*
X0052111Y0009793D01*
X0053193Y0008194D02*
X0045407Y0008194D01*
X0059537Y0016187D02*
X0074063Y0016187D01*
X0073911Y0016124D02*
X0072476Y0014689D01*
X0071700Y0012814D01*
X0071700Y0010786D01*
X0072476Y0008911D01*
X0073911Y0007476D01*
X0075786Y0006700D01*
X0077814Y0006700D01*
X0079689Y0007476D01*
X0081124Y0008911D01*
X0081900Y0010786D01*
X0081900Y0012814D01*
X0081124Y0014689D01*
X0079689Y0016124D01*
X0077814Y0016900D01*
X0075786Y0016900D01*
X0073911Y0016124D01*
X0072435Y0014588D02*
X0061165Y0014588D01*
X0061827Y0012990D02*
X0071773Y0012990D01*
X0071700Y0011391D02*
X0061900Y0011391D01*
X0061489Y0009793D02*
X0072111Y0009793D01*
X0073193Y0008194D02*
X0060407Y0008194D01*
X0060800Y0025778D02*
X0064100Y0025778D01*
X0062501Y0027376D02*
X0060800Y0027376D01*
X0062086Y0028975D02*
X0062400Y0028975D01*
X0066800Y0028975D02*
X0066800Y0028975D01*
X0066800Y0029300D02*
X0066800Y0024900D01*
X0066800Y0029300D01*
X0066800Y0029300D01*
X0066800Y0027376D02*
X0066800Y0027376D01*
X0066800Y0025778D02*
X0066800Y0025778D01*
X0078934Y0025778D02*
X0084711Y0025778D01*
X0085200Y0032172D02*
X0079585Y0032172D01*
X0079537Y0016187D02*
X0189964Y0016187D01*
X0184718Y0019384D02*
X0127640Y0019384D01*
X0121800Y0021800D02*
X0186800Y0021800D01*
X0196850Y0004997D02*
X0003600Y0004997D01*
X0080407Y0008194D02*
X0087453Y0008194D01*
X0085702Y0009793D02*
X0081489Y0009793D01*
X0081900Y0011391D02*
X0085200Y0011391D01*
X0085363Y0012990D02*
X0081827Y0012990D01*
X0081165Y0014588D02*
X0086331Y0014588D01*
D19*
X0104300Y0011800D03*
X0106800Y0021800D03*
X0136800Y0030381D03*
X0141800Y0026800D03*
X0171800Y0031800D03*
X0186800Y0021800D03*
X0171800Y0076800D03*
X0168219Y0096800D03*
X0166800Y0106800D03*
X0111800Y0066800D03*
X0110381Y0081800D03*
X0106800Y0091800D03*
X0084300Y0076800D03*
X0071800Y0081800D03*
X0076800Y0091800D03*
X0071800Y0106800D03*
X0076800Y0116800D03*
X0051800Y0096800D03*
X0031800Y0101800D03*
X0026800Y0111800D03*
X0036800Y0141800D03*
X0007781Y0146800D03*
X0044300Y0066800D03*
X0036800Y0056800D03*
X0106800Y0141800D03*
X0104300Y0146800D03*
X0099300Y0151800D03*
X0111800Y0151800D03*
X0111800Y0156562D03*
X0099300Y0171800D03*
X0131800Y0179300D03*
X0171800Y0176800D03*
M02*
