G75*
%MOIN*%
%OFA0B0*%
%FSLAX25Y25*%
%IPPOS*%
%LPD*%
%AMOC8*
5,1,8,0,0,1.08239X$1,22.5*
%
%ADD10C,0.00000*%
%ADD11OC8,0.05600*%
%ADD12C,0.05600*%
%ADD13C,0.07800*%
%ADD14C,0.05550*%
%ADD15C,0.11620*%
%ADD16C,0.05600*%
%ADD17C,0.06337*%
D10*
X0001800Y0001800D02*
X0001800Y0198650D01*
X0198650Y0198650D01*
X0198650Y0001800D01*
X0001800Y0001800D01*
D11*
X0044300Y0026800D03*
X0056800Y0026800D03*
X0066800Y0029300D03*
X0076800Y0029300D03*
X0056800Y0056800D03*
X0044300Y0056800D03*
X0139300Y0131800D03*
X0139300Y0141800D03*
X0116800Y0169300D03*
X0106800Y0169300D03*
X0116800Y0181800D03*
X0116800Y0191800D03*
X0104300Y0184300D03*
X0099300Y0191800D03*
X0094300Y0184300D03*
X0139300Y0189300D03*
X0181800Y0191800D03*
X0181800Y0181800D03*
X0181800Y0174300D03*
X0181800Y0144300D03*
X0156800Y0061800D03*
X0151800Y0011800D03*
X0141800Y0011800D03*
X0161800Y0011800D03*
X0191800Y0011800D03*
D12*
X0136800Y0061800D03*
X0139300Y0169300D03*
D13*
X0193800Y0136800D03*
X0193800Y0126800D03*
X0193800Y0116800D03*
X0193800Y0106800D03*
X0193800Y0096800D03*
X0193800Y0086800D03*
X0193800Y0076800D03*
X0193800Y0066800D03*
X0076800Y0011800D03*
X0056800Y0011800D03*
X0041800Y0011800D03*
X0021800Y0011800D03*
X0006800Y0016800D03*
X0006800Y0026800D03*
X0006800Y0036800D03*
X0006800Y0046800D03*
X0006800Y0056800D03*
X0006800Y0066800D03*
X0006800Y0076800D03*
X0006800Y0086800D03*
X0006800Y0096800D03*
X0006800Y0106800D03*
X0006800Y0116800D03*
X0006800Y0126800D03*
X0006800Y0136800D03*
X0071800Y0061800D03*
X0071800Y0051800D03*
X0071800Y0041800D03*
D14*
X0033099Y0161721D03*
X0029950Y0166446D03*
X0026800Y0161721D03*
X0023650Y0166446D03*
X0020501Y0161721D03*
X0058926Y0186800D03*
X0066800Y0186800D03*
X0074674Y0186800D03*
D15*
X0041170Y0181800D03*
X0012430Y0181800D03*
D16*
X0089200Y0141800D02*
X0094400Y0141800D01*
X0094400Y0131800D02*
X0089200Y0131800D01*
X0089200Y0121800D02*
X0094400Y0121800D01*
X0094400Y0111800D02*
X0089200Y0111800D01*
X0089200Y0101800D02*
X0094400Y0101800D01*
X0094400Y0091800D02*
X0089200Y0091800D01*
X0089200Y0081800D02*
X0094400Y0081800D01*
X0094400Y0071800D02*
X0089200Y0071800D01*
X0089200Y0061800D02*
X0094400Y0061800D01*
X0094400Y0051800D02*
X0089200Y0051800D01*
X0089200Y0041800D02*
X0094400Y0041800D01*
X0094400Y0031800D02*
X0089200Y0031800D01*
X0089200Y0021800D02*
X0094400Y0021800D01*
X0094400Y0011800D02*
X0089200Y0011800D01*
X0119200Y0011800D02*
X0124400Y0011800D01*
X0124400Y0021800D02*
X0119200Y0021800D01*
X0119200Y0031800D02*
X0124400Y0031800D01*
X0124400Y0041800D02*
X0119200Y0041800D01*
X0119200Y0051800D02*
X0124400Y0051800D01*
X0124400Y0061800D02*
X0119200Y0061800D01*
X0119200Y0071800D02*
X0124400Y0071800D01*
X0124400Y0081800D02*
X0119200Y0081800D01*
X0119200Y0091800D02*
X0124400Y0091800D01*
X0124400Y0101800D02*
X0119200Y0101800D01*
X0119200Y0111800D02*
X0124400Y0111800D01*
X0124400Y0121800D02*
X0119200Y0121800D01*
X0119200Y0131800D02*
X0124400Y0131800D01*
X0124400Y0141800D02*
X0119200Y0141800D01*
D17*
X0082548Y0186800D03*
X0051052Y0186800D03*
M02*
