G75*
%MOIN*%
%OFA0B0*%
%FSLAX25Y25*%
%IPPOS*%
%LPD*%
%AMOC8*
5,1,8,0,0,1.08239X$1,22.5*
%
%ADD10C,0.00000*%
%ADD11C,0.00600*%
%ADD12C,0.01000*%
%ADD13C,0.00500*%
%ADD14R,0.02000X0.10000*%
%ADD15R,0.10000X0.02000*%
%ADD16C,0.00800*%
%ADD17R,0.02000X0.01500*%
%ADD18C,0.00400*%
%ADD19R,0.01500X0.02000*%
D10*
X0001800Y0001800D02*
X0001800Y0198650D01*
X0198650Y0198650D01*
X0198650Y0001800D01*
X0001800Y0001800D01*
D11*
X0040300Y0032800D02*
X0040300Y0034300D01*
X0040800Y0034800D01*
X0040800Y0048800D01*
X0040300Y0049300D01*
X0040300Y0050800D01*
X0040302Y0050860D01*
X0040307Y0050921D01*
X0040316Y0050980D01*
X0040329Y0051039D01*
X0040345Y0051098D01*
X0040365Y0051155D01*
X0040388Y0051210D01*
X0040415Y0051265D01*
X0040444Y0051317D01*
X0040477Y0051368D01*
X0040513Y0051417D01*
X0040551Y0051463D01*
X0040593Y0051507D01*
X0040637Y0051549D01*
X0040683Y0051587D01*
X0040732Y0051623D01*
X0040783Y0051656D01*
X0040835Y0051685D01*
X0040890Y0051712D01*
X0040945Y0051735D01*
X0041002Y0051755D01*
X0041061Y0051771D01*
X0041120Y0051784D01*
X0041179Y0051793D01*
X0041240Y0051798D01*
X0041300Y0051800D01*
X0047300Y0051800D01*
X0047360Y0051798D01*
X0047421Y0051793D01*
X0047480Y0051784D01*
X0047539Y0051771D01*
X0047598Y0051755D01*
X0047655Y0051735D01*
X0047710Y0051712D01*
X0047765Y0051685D01*
X0047817Y0051656D01*
X0047868Y0051623D01*
X0047917Y0051587D01*
X0047963Y0051549D01*
X0048007Y0051507D01*
X0048049Y0051463D01*
X0048087Y0051417D01*
X0048123Y0051368D01*
X0048156Y0051317D01*
X0048185Y0051265D01*
X0048212Y0051210D01*
X0048235Y0051155D01*
X0048255Y0051098D01*
X0048271Y0051039D01*
X0048284Y0050980D01*
X0048293Y0050921D01*
X0048298Y0050860D01*
X0048300Y0050800D01*
X0048300Y0049300D01*
X0047800Y0048800D01*
X0047800Y0034800D01*
X0048300Y0034300D01*
X0048300Y0032800D01*
X0048298Y0032740D01*
X0048293Y0032679D01*
X0048284Y0032620D01*
X0048271Y0032561D01*
X0048255Y0032502D01*
X0048235Y0032445D01*
X0048212Y0032390D01*
X0048185Y0032335D01*
X0048156Y0032283D01*
X0048123Y0032232D01*
X0048087Y0032183D01*
X0048049Y0032137D01*
X0048007Y0032093D01*
X0047963Y0032051D01*
X0047917Y0032013D01*
X0047868Y0031977D01*
X0047817Y0031944D01*
X0047765Y0031915D01*
X0047710Y0031888D01*
X0047655Y0031865D01*
X0047598Y0031845D01*
X0047539Y0031829D01*
X0047480Y0031816D01*
X0047421Y0031807D01*
X0047360Y0031802D01*
X0047300Y0031800D01*
X0041300Y0031800D01*
X0041240Y0031802D01*
X0041179Y0031807D01*
X0041120Y0031816D01*
X0041061Y0031829D01*
X0041002Y0031845D01*
X0040945Y0031865D01*
X0040890Y0031888D01*
X0040835Y0031915D01*
X0040783Y0031944D01*
X0040732Y0031977D01*
X0040683Y0032013D01*
X0040637Y0032051D01*
X0040593Y0032093D01*
X0040551Y0032137D01*
X0040513Y0032183D01*
X0040477Y0032232D01*
X0040444Y0032283D01*
X0040415Y0032335D01*
X0040388Y0032390D01*
X0040365Y0032445D01*
X0040345Y0032502D01*
X0040329Y0032561D01*
X0040316Y0032620D01*
X0040307Y0032679D01*
X0040302Y0032740D01*
X0040300Y0032800D01*
X0052800Y0032800D02*
X0052800Y0034300D01*
X0053300Y0034800D01*
X0053300Y0048800D01*
X0052800Y0049300D01*
X0052800Y0050800D01*
X0052802Y0050860D01*
X0052807Y0050921D01*
X0052816Y0050980D01*
X0052829Y0051039D01*
X0052845Y0051098D01*
X0052865Y0051155D01*
X0052888Y0051210D01*
X0052915Y0051265D01*
X0052944Y0051317D01*
X0052977Y0051368D01*
X0053013Y0051417D01*
X0053051Y0051463D01*
X0053093Y0051507D01*
X0053137Y0051549D01*
X0053183Y0051587D01*
X0053232Y0051623D01*
X0053283Y0051656D01*
X0053335Y0051685D01*
X0053390Y0051712D01*
X0053445Y0051735D01*
X0053502Y0051755D01*
X0053561Y0051771D01*
X0053620Y0051784D01*
X0053679Y0051793D01*
X0053740Y0051798D01*
X0053800Y0051800D01*
X0059800Y0051800D01*
X0059860Y0051798D01*
X0059921Y0051793D01*
X0059980Y0051784D01*
X0060039Y0051771D01*
X0060098Y0051755D01*
X0060155Y0051735D01*
X0060210Y0051712D01*
X0060265Y0051685D01*
X0060317Y0051656D01*
X0060368Y0051623D01*
X0060417Y0051587D01*
X0060463Y0051549D01*
X0060507Y0051507D01*
X0060549Y0051463D01*
X0060587Y0051417D01*
X0060623Y0051368D01*
X0060656Y0051317D01*
X0060685Y0051265D01*
X0060712Y0051210D01*
X0060735Y0051155D01*
X0060755Y0051098D01*
X0060771Y0051039D01*
X0060784Y0050980D01*
X0060793Y0050921D01*
X0060798Y0050860D01*
X0060800Y0050800D01*
X0060800Y0049300D01*
X0060300Y0048800D01*
X0060300Y0034800D01*
X0060800Y0034300D01*
X0060800Y0032800D01*
X0060798Y0032740D01*
X0060793Y0032679D01*
X0060784Y0032620D01*
X0060771Y0032561D01*
X0060755Y0032502D01*
X0060735Y0032445D01*
X0060712Y0032390D01*
X0060685Y0032335D01*
X0060656Y0032283D01*
X0060623Y0032232D01*
X0060587Y0032183D01*
X0060549Y0032137D01*
X0060507Y0032093D01*
X0060463Y0032051D01*
X0060417Y0032013D01*
X0060368Y0031977D01*
X0060317Y0031944D01*
X0060265Y0031915D01*
X0060210Y0031888D01*
X0060155Y0031865D01*
X0060098Y0031845D01*
X0060039Y0031829D01*
X0059980Y0031816D01*
X0059921Y0031807D01*
X0059860Y0031802D01*
X0059800Y0031800D01*
X0053800Y0031800D01*
X0053740Y0031802D01*
X0053679Y0031807D01*
X0053620Y0031816D01*
X0053561Y0031829D01*
X0053502Y0031845D01*
X0053445Y0031865D01*
X0053390Y0031888D01*
X0053335Y0031915D01*
X0053283Y0031944D01*
X0053232Y0031977D01*
X0053183Y0032013D01*
X0053137Y0032051D01*
X0053093Y0032093D01*
X0053051Y0032137D01*
X0053013Y0032183D01*
X0052977Y0032232D01*
X0052944Y0032283D01*
X0052915Y0032335D01*
X0052888Y0032390D01*
X0052865Y0032445D01*
X0052845Y0032502D01*
X0052829Y0032561D01*
X0052816Y0032620D01*
X0052807Y0032679D01*
X0052802Y0032740D01*
X0052800Y0032800D01*
X0062300Y0033300D02*
X0062300Y0025300D01*
X0062302Y0025240D01*
X0062307Y0025179D01*
X0062316Y0025120D01*
X0062329Y0025061D01*
X0062345Y0025002D01*
X0062365Y0024945D01*
X0062388Y0024890D01*
X0062415Y0024835D01*
X0062444Y0024783D01*
X0062477Y0024732D01*
X0062513Y0024683D01*
X0062551Y0024637D01*
X0062593Y0024593D01*
X0062637Y0024551D01*
X0062683Y0024513D01*
X0062732Y0024477D01*
X0062783Y0024444D01*
X0062835Y0024415D01*
X0062890Y0024388D01*
X0062945Y0024365D01*
X0063002Y0024345D01*
X0063061Y0024329D01*
X0063120Y0024316D01*
X0063179Y0024307D01*
X0063240Y0024302D01*
X0063300Y0024300D01*
X0080300Y0024300D01*
X0080360Y0024302D01*
X0080421Y0024307D01*
X0080480Y0024316D01*
X0080539Y0024329D01*
X0080598Y0024345D01*
X0080655Y0024365D01*
X0080710Y0024388D01*
X0080765Y0024415D01*
X0080817Y0024444D01*
X0080868Y0024477D01*
X0080917Y0024513D01*
X0080963Y0024551D01*
X0081007Y0024593D01*
X0081049Y0024637D01*
X0081087Y0024683D01*
X0081123Y0024732D01*
X0081156Y0024783D01*
X0081185Y0024835D01*
X0081212Y0024890D01*
X0081235Y0024945D01*
X0081255Y0025002D01*
X0081271Y0025061D01*
X0081284Y0025120D01*
X0081293Y0025179D01*
X0081298Y0025240D01*
X0081300Y0025300D01*
X0081300Y0033300D01*
X0081298Y0033360D01*
X0081293Y0033421D01*
X0081284Y0033480D01*
X0081271Y0033539D01*
X0081255Y0033598D01*
X0081235Y0033655D01*
X0081212Y0033710D01*
X0081185Y0033765D01*
X0081156Y0033817D01*
X0081123Y0033868D01*
X0081087Y0033917D01*
X0081049Y0033963D01*
X0081007Y0034007D01*
X0080963Y0034049D01*
X0080917Y0034087D01*
X0080868Y0034123D01*
X0080817Y0034156D01*
X0080765Y0034185D01*
X0080710Y0034212D01*
X0080655Y0034235D01*
X0080598Y0034255D01*
X0080539Y0034271D01*
X0080480Y0034284D01*
X0080421Y0034293D01*
X0080360Y0034298D01*
X0080300Y0034300D01*
X0063300Y0034300D01*
X0063240Y0034298D01*
X0063179Y0034293D01*
X0063120Y0034284D01*
X0063061Y0034271D01*
X0063002Y0034255D01*
X0062945Y0034235D01*
X0062890Y0034212D01*
X0062835Y0034185D01*
X0062783Y0034156D01*
X0062732Y0034123D01*
X0062683Y0034087D01*
X0062637Y0034049D01*
X0062593Y0034007D01*
X0062551Y0033963D01*
X0062513Y0033917D01*
X0062477Y0033868D01*
X0062444Y0033817D01*
X0062415Y0033765D01*
X0062388Y0033710D01*
X0062365Y0033655D01*
X0062345Y0033598D01*
X0062329Y0033539D01*
X0062316Y0033480D01*
X0062307Y0033421D01*
X0062302Y0033360D01*
X0062300Y0033300D01*
X0070300Y0029300D02*
X0070800Y0029300D01*
X0072800Y0029300D02*
X0073300Y0029300D01*
X0096800Y0006800D02*
X0096800Y0146300D01*
X0096800Y0146800D02*
X0101800Y0146800D01*
X0101802Y0146660D01*
X0101808Y0146520D01*
X0101818Y0146380D01*
X0101831Y0146240D01*
X0101849Y0146101D01*
X0101871Y0145962D01*
X0101896Y0145825D01*
X0101925Y0145687D01*
X0101958Y0145551D01*
X0101995Y0145416D01*
X0102036Y0145282D01*
X0102081Y0145149D01*
X0102129Y0145017D01*
X0102181Y0144887D01*
X0102236Y0144758D01*
X0102295Y0144631D01*
X0102358Y0144505D01*
X0102424Y0144381D01*
X0102493Y0144260D01*
X0102566Y0144140D01*
X0102643Y0144022D01*
X0102722Y0143907D01*
X0102805Y0143793D01*
X0102891Y0143683D01*
X0102980Y0143574D01*
X0103072Y0143468D01*
X0103167Y0143365D01*
X0103264Y0143264D01*
X0103365Y0143167D01*
X0103468Y0143072D01*
X0103574Y0142980D01*
X0103683Y0142891D01*
X0103793Y0142805D01*
X0103907Y0142722D01*
X0104022Y0142643D01*
X0104140Y0142566D01*
X0104260Y0142493D01*
X0104381Y0142424D01*
X0104505Y0142358D01*
X0104631Y0142295D01*
X0104758Y0142236D01*
X0104887Y0142181D01*
X0105017Y0142129D01*
X0105149Y0142081D01*
X0105282Y0142036D01*
X0105416Y0141995D01*
X0105551Y0141958D01*
X0105687Y0141925D01*
X0105825Y0141896D01*
X0105962Y0141871D01*
X0106101Y0141849D01*
X0106240Y0141831D01*
X0106380Y0141818D01*
X0106520Y0141808D01*
X0106660Y0141802D01*
X0106800Y0141800D01*
X0106940Y0141802D01*
X0107080Y0141808D01*
X0107220Y0141818D01*
X0107360Y0141831D01*
X0107499Y0141849D01*
X0107638Y0141871D01*
X0107775Y0141896D01*
X0107913Y0141925D01*
X0108049Y0141958D01*
X0108184Y0141995D01*
X0108318Y0142036D01*
X0108451Y0142081D01*
X0108583Y0142129D01*
X0108713Y0142181D01*
X0108842Y0142236D01*
X0108969Y0142295D01*
X0109095Y0142358D01*
X0109219Y0142424D01*
X0109340Y0142493D01*
X0109460Y0142566D01*
X0109578Y0142643D01*
X0109693Y0142722D01*
X0109807Y0142805D01*
X0109917Y0142891D01*
X0110026Y0142980D01*
X0110132Y0143072D01*
X0110235Y0143167D01*
X0110336Y0143264D01*
X0110433Y0143365D01*
X0110528Y0143468D01*
X0110620Y0143574D01*
X0110709Y0143683D01*
X0110795Y0143793D01*
X0110878Y0143907D01*
X0110957Y0144022D01*
X0111034Y0144140D01*
X0111107Y0144260D01*
X0111176Y0144381D01*
X0111242Y0144505D01*
X0111305Y0144631D01*
X0111364Y0144758D01*
X0111419Y0144887D01*
X0111471Y0145017D01*
X0111519Y0145149D01*
X0111564Y0145282D01*
X0111605Y0145416D01*
X0111642Y0145551D01*
X0111675Y0145687D01*
X0111704Y0145825D01*
X0111729Y0145962D01*
X0111751Y0146101D01*
X0111769Y0146240D01*
X0111782Y0146380D01*
X0111792Y0146520D01*
X0111798Y0146660D01*
X0111800Y0146800D01*
X0116800Y0146800D01*
X0116800Y0006800D01*
X0096800Y0006800D01*
X0135300Y0052300D02*
X0132300Y0055300D01*
X0132300Y0068300D01*
X0135300Y0071300D01*
X0159800Y0071300D01*
X0159876Y0071298D01*
X0159952Y0071292D01*
X0160027Y0071283D01*
X0160102Y0071269D01*
X0160176Y0071252D01*
X0160249Y0071231D01*
X0160321Y0071207D01*
X0160392Y0071178D01*
X0160461Y0071147D01*
X0160528Y0071112D01*
X0160593Y0071073D01*
X0160657Y0071031D01*
X0160718Y0070986D01*
X0160777Y0070938D01*
X0160833Y0070887D01*
X0160887Y0070833D01*
X0160938Y0070777D01*
X0160986Y0070718D01*
X0161031Y0070657D01*
X0161073Y0070593D01*
X0161112Y0070528D01*
X0161147Y0070461D01*
X0161178Y0070392D01*
X0161207Y0070321D01*
X0161231Y0070249D01*
X0161252Y0070176D01*
X0161269Y0070102D01*
X0161283Y0070027D01*
X0161292Y0069952D01*
X0161298Y0069876D01*
X0161300Y0069800D01*
X0161300Y0053800D01*
X0161298Y0053724D01*
X0161292Y0053648D01*
X0161283Y0053573D01*
X0161269Y0053498D01*
X0161252Y0053424D01*
X0161231Y0053351D01*
X0161207Y0053279D01*
X0161178Y0053208D01*
X0161147Y0053139D01*
X0161112Y0053072D01*
X0161073Y0053007D01*
X0161031Y0052943D01*
X0160986Y0052882D01*
X0160938Y0052823D01*
X0160887Y0052767D01*
X0160833Y0052713D01*
X0160777Y0052662D01*
X0160718Y0052614D01*
X0160657Y0052569D01*
X0160593Y0052527D01*
X0160528Y0052488D01*
X0160461Y0052453D01*
X0160392Y0052422D01*
X0160321Y0052393D01*
X0160249Y0052369D01*
X0160176Y0052348D01*
X0160102Y0052331D01*
X0160027Y0052317D01*
X0159952Y0052308D01*
X0159876Y0052302D01*
X0159800Y0052300D01*
X0135300Y0052300D01*
X0144300Y0057000D02*
X0146300Y0057000D01*
X0146300Y0066600D01*
X0144300Y0066600D01*
X0144300Y0061800D01*
X0144300Y0057000D01*
X0144300Y0061800D02*
X0140800Y0061800D01*
X0139800Y0065900D02*
X0139800Y0068400D01*
X0141100Y0067200D02*
X0138500Y0067200D01*
X0149300Y0061800D02*
X0152800Y0061800D01*
X0167800Y0015800D02*
X0169300Y0015800D01*
X0169800Y0015300D01*
X0183800Y0015300D01*
X0184300Y0015800D01*
X0185800Y0015800D01*
X0185860Y0015798D01*
X0185921Y0015793D01*
X0185980Y0015784D01*
X0186039Y0015771D01*
X0186098Y0015755D01*
X0186155Y0015735D01*
X0186210Y0015712D01*
X0186265Y0015685D01*
X0186317Y0015656D01*
X0186368Y0015623D01*
X0186417Y0015587D01*
X0186463Y0015549D01*
X0186507Y0015507D01*
X0186549Y0015463D01*
X0186587Y0015417D01*
X0186623Y0015368D01*
X0186656Y0015317D01*
X0186685Y0015265D01*
X0186712Y0015210D01*
X0186735Y0015155D01*
X0186755Y0015098D01*
X0186771Y0015039D01*
X0186784Y0014980D01*
X0186793Y0014921D01*
X0186798Y0014860D01*
X0186800Y0014800D01*
X0186800Y0008800D01*
X0186798Y0008740D01*
X0186793Y0008679D01*
X0186784Y0008620D01*
X0186771Y0008561D01*
X0186755Y0008502D01*
X0186735Y0008445D01*
X0186712Y0008390D01*
X0186685Y0008335D01*
X0186656Y0008283D01*
X0186623Y0008232D01*
X0186587Y0008183D01*
X0186549Y0008137D01*
X0186507Y0008093D01*
X0186463Y0008051D01*
X0186417Y0008013D01*
X0186368Y0007977D01*
X0186317Y0007944D01*
X0186265Y0007915D01*
X0186210Y0007888D01*
X0186155Y0007865D01*
X0186098Y0007845D01*
X0186039Y0007829D01*
X0185980Y0007816D01*
X0185921Y0007807D01*
X0185860Y0007802D01*
X0185800Y0007800D01*
X0184300Y0007800D01*
X0183800Y0008300D01*
X0169800Y0008300D01*
X0169300Y0007800D01*
X0167800Y0007800D01*
X0167740Y0007802D01*
X0167679Y0007807D01*
X0167620Y0007816D01*
X0167561Y0007829D01*
X0167502Y0007845D01*
X0167445Y0007865D01*
X0167390Y0007888D01*
X0167335Y0007915D01*
X0167283Y0007944D01*
X0167232Y0007977D01*
X0167183Y0008013D01*
X0167137Y0008051D01*
X0167093Y0008093D01*
X0167051Y0008137D01*
X0167013Y0008183D01*
X0166977Y0008232D01*
X0166944Y0008283D01*
X0166915Y0008335D01*
X0166888Y0008390D01*
X0166865Y0008445D01*
X0166845Y0008502D01*
X0166829Y0008561D01*
X0166816Y0008620D01*
X0166807Y0008679D01*
X0166802Y0008740D01*
X0166800Y0008800D01*
X0166800Y0014800D01*
X0166802Y0014860D01*
X0166807Y0014921D01*
X0166816Y0014980D01*
X0166829Y0015039D01*
X0166845Y0015098D01*
X0166865Y0015155D01*
X0166888Y0015210D01*
X0166915Y0015265D01*
X0166944Y0015317D01*
X0166977Y0015368D01*
X0167013Y0015417D01*
X0167051Y0015463D01*
X0167093Y0015507D01*
X0167137Y0015549D01*
X0167183Y0015587D01*
X0167232Y0015623D01*
X0167283Y0015656D01*
X0167335Y0015685D01*
X0167390Y0015712D01*
X0167445Y0015735D01*
X0167502Y0015755D01*
X0167561Y0015771D01*
X0167620Y0015784D01*
X0167679Y0015793D01*
X0167740Y0015798D01*
X0167800Y0015800D01*
X0146800Y0005800D02*
X0146648Y0005802D01*
X0146497Y0005808D01*
X0146346Y0005817D01*
X0146194Y0005831D01*
X0146044Y0005848D01*
X0145894Y0005869D01*
X0145744Y0005894D01*
X0145595Y0005922D01*
X0145447Y0005955D01*
X0145300Y0005991D01*
X0145153Y0006030D01*
X0145008Y0006074D01*
X0144864Y0006121D01*
X0144721Y0006172D01*
X0144580Y0006226D01*
X0144439Y0006284D01*
X0144301Y0006345D01*
X0144164Y0006410D01*
X0144028Y0006479D01*
X0143895Y0006550D01*
X0143763Y0006625D01*
X0143633Y0006704D01*
X0143506Y0006785D01*
X0143380Y0006870D01*
X0143256Y0006958D01*
X0143135Y0007049D01*
X0143016Y0007143D01*
X0142900Y0007241D01*
X0142786Y0007341D01*
X0142674Y0007443D01*
X0142566Y0007549D01*
X0142460Y0007657D01*
X0142356Y0007768D01*
X0142256Y0007882D01*
X0142158Y0007998D01*
X0142064Y0008117D01*
X0146800Y0017800D02*
X0146954Y0017798D01*
X0147108Y0017792D01*
X0147262Y0017782D01*
X0147416Y0017768D01*
X0147569Y0017751D01*
X0147721Y0017729D01*
X0147873Y0017703D01*
X0148025Y0017674D01*
X0148175Y0017640D01*
X0148325Y0017603D01*
X0148473Y0017562D01*
X0148621Y0017517D01*
X0148767Y0017468D01*
X0148912Y0017416D01*
X0149055Y0017360D01*
X0149198Y0017300D01*
X0149338Y0017237D01*
X0149477Y0017170D01*
X0149614Y0017099D01*
X0149749Y0017025D01*
X0149882Y0016948D01*
X0150014Y0016867D01*
X0150143Y0016783D01*
X0150270Y0016695D01*
X0150394Y0016604D01*
X0150516Y0016511D01*
X0150636Y0016413D01*
X0150753Y0016313D01*
X0150868Y0016210D01*
X0150980Y0016104D01*
X0151089Y0015996D01*
X0151195Y0015884D01*
X0151299Y0015770D01*
X0151399Y0015653D01*
X0151497Y0015534D01*
X0151591Y0015412D01*
X0151682Y0015287D01*
X0146800Y0017800D02*
X0146650Y0017798D01*
X0146499Y0017792D01*
X0146349Y0017783D01*
X0146200Y0017770D01*
X0146050Y0017753D01*
X0145901Y0017732D01*
X0145753Y0017708D01*
X0145605Y0017680D01*
X0145458Y0017648D01*
X0145312Y0017613D01*
X0145167Y0017573D01*
X0145023Y0017531D01*
X0144880Y0017484D01*
X0144738Y0017434D01*
X0144597Y0017381D01*
X0144458Y0017324D01*
X0144320Y0017264D01*
X0144184Y0017200D01*
X0144050Y0017133D01*
X0143917Y0017062D01*
X0143786Y0016988D01*
X0143657Y0016911D01*
X0143530Y0016830D01*
X0143405Y0016747D01*
X0143282Y0016660D01*
X0143161Y0016571D01*
X0143043Y0016478D01*
X0142927Y0016382D01*
X0142813Y0016284D01*
X0142702Y0016183D01*
X0142593Y0016078D01*
X0142488Y0015972D01*
X0142384Y0015862D01*
X0142284Y0015750D01*
X0142186Y0015636D01*
X0142092Y0015519D01*
X0142000Y0015400D01*
X0146800Y0005800D02*
X0146952Y0005802D01*
X0147103Y0005808D01*
X0147254Y0005817D01*
X0147406Y0005831D01*
X0147556Y0005848D01*
X0147706Y0005869D01*
X0147856Y0005894D01*
X0148005Y0005922D01*
X0148153Y0005955D01*
X0148300Y0005991D01*
X0148447Y0006030D01*
X0148592Y0006074D01*
X0148736Y0006121D01*
X0148879Y0006172D01*
X0149020Y0006226D01*
X0149161Y0006284D01*
X0149299Y0006345D01*
X0149436Y0006410D01*
X0149572Y0006479D01*
X0149705Y0006550D01*
X0149837Y0006625D01*
X0149967Y0006704D01*
X0150094Y0006785D01*
X0150220Y0006870D01*
X0150344Y0006958D01*
X0150465Y0007049D01*
X0150584Y0007143D01*
X0150700Y0007241D01*
X0150814Y0007341D01*
X0150926Y0007443D01*
X0151034Y0007549D01*
X0151140Y0007657D01*
X0151244Y0007768D01*
X0151344Y0007882D01*
X0151442Y0007998D01*
X0151536Y0008117D01*
X0143300Y0127300D02*
X0135300Y0127300D01*
X0135240Y0127302D01*
X0135179Y0127307D01*
X0135120Y0127316D01*
X0135061Y0127329D01*
X0135002Y0127345D01*
X0134945Y0127365D01*
X0134890Y0127388D01*
X0134835Y0127415D01*
X0134783Y0127444D01*
X0134732Y0127477D01*
X0134683Y0127513D01*
X0134637Y0127551D01*
X0134593Y0127593D01*
X0134551Y0127637D01*
X0134513Y0127683D01*
X0134477Y0127732D01*
X0134444Y0127783D01*
X0134415Y0127835D01*
X0134388Y0127890D01*
X0134365Y0127945D01*
X0134345Y0128002D01*
X0134329Y0128061D01*
X0134316Y0128120D01*
X0134307Y0128179D01*
X0134302Y0128240D01*
X0134300Y0128300D01*
X0134300Y0145300D01*
X0134302Y0145360D01*
X0134307Y0145421D01*
X0134316Y0145480D01*
X0134329Y0145539D01*
X0134345Y0145598D01*
X0134365Y0145655D01*
X0134388Y0145710D01*
X0134415Y0145765D01*
X0134444Y0145817D01*
X0134477Y0145868D01*
X0134513Y0145917D01*
X0134551Y0145963D01*
X0134593Y0146007D01*
X0134637Y0146049D01*
X0134683Y0146087D01*
X0134732Y0146123D01*
X0134783Y0146156D01*
X0134835Y0146185D01*
X0134890Y0146212D01*
X0134945Y0146235D01*
X0135002Y0146255D01*
X0135061Y0146271D01*
X0135120Y0146284D01*
X0135179Y0146293D01*
X0135240Y0146298D01*
X0135300Y0146300D01*
X0143300Y0146300D01*
X0143360Y0146298D01*
X0143421Y0146293D01*
X0143480Y0146284D01*
X0143539Y0146271D01*
X0143598Y0146255D01*
X0143655Y0146235D01*
X0143710Y0146212D01*
X0143765Y0146185D01*
X0143817Y0146156D01*
X0143868Y0146123D01*
X0143917Y0146087D01*
X0143963Y0146049D01*
X0144007Y0146007D01*
X0144049Y0145963D01*
X0144087Y0145917D01*
X0144123Y0145868D01*
X0144156Y0145817D01*
X0144185Y0145765D01*
X0144212Y0145710D01*
X0144235Y0145655D01*
X0144255Y0145598D01*
X0144271Y0145539D01*
X0144284Y0145480D01*
X0144293Y0145421D01*
X0144298Y0145360D01*
X0144300Y0145300D01*
X0144300Y0128300D01*
X0144298Y0128240D01*
X0144293Y0128179D01*
X0144284Y0128120D01*
X0144271Y0128061D01*
X0144255Y0128002D01*
X0144235Y0127945D01*
X0144212Y0127890D01*
X0144185Y0127835D01*
X0144156Y0127783D01*
X0144123Y0127732D01*
X0144087Y0127683D01*
X0144049Y0127637D01*
X0144007Y0127593D01*
X0143963Y0127551D01*
X0143917Y0127513D01*
X0143868Y0127477D01*
X0143817Y0127444D01*
X0143765Y0127415D01*
X0143710Y0127388D01*
X0143655Y0127365D01*
X0143598Y0127345D01*
X0143539Y0127329D01*
X0143480Y0127316D01*
X0143421Y0127307D01*
X0143360Y0127302D01*
X0143300Y0127300D01*
X0139300Y0135300D02*
X0139300Y0135800D01*
X0139300Y0137800D02*
X0139300Y0138300D01*
X0120300Y0164300D02*
X0103300Y0164300D01*
X0103240Y0164302D01*
X0103179Y0164307D01*
X0103120Y0164316D01*
X0103061Y0164329D01*
X0103002Y0164345D01*
X0102945Y0164365D01*
X0102890Y0164388D01*
X0102835Y0164415D01*
X0102783Y0164444D01*
X0102732Y0164477D01*
X0102683Y0164513D01*
X0102637Y0164551D01*
X0102593Y0164593D01*
X0102551Y0164637D01*
X0102513Y0164683D01*
X0102477Y0164732D01*
X0102444Y0164783D01*
X0102415Y0164835D01*
X0102388Y0164890D01*
X0102365Y0164945D01*
X0102345Y0165002D01*
X0102329Y0165061D01*
X0102316Y0165120D01*
X0102307Y0165179D01*
X0102302Y0165240D01*
X0102300Y0165300D01*
X0102300Y0173300D01*
X0102302Y0173360D01*
X0102307Y0173421D01*
X0102316Y0173480D01*
X0102329Y0173539D01*
X0102345Y0173598D01*
X0102365Y0173655D01*
X0102388Y0173710D01*
X0102415Y0173765D01*
X0102444Y0173817D01*
X0102477Y0173868D01*
X0102513Y0173917D01*
X0102551Y0173963D01*
X0102593Y0174007D01*
X0102637Y0174049D01*
X0102683Y0174087D01*
X0102732Y0174123D01*
X0102783Y0174156D01*
X0102835Y0174185D01*
X0102890Y0174212D01*
X0102945Y0174235D01*
X0103002Y0174255D01*
X0103061Y0174271D01*
X0103120Y0174284D01*
X0103179Y0174293D01*
X0103240Y0174298D01*
X0103300Y0174300D01*
X0120300Y0174300D01*
X0120360Y0174298D01*
X0120421Y0174293D01*
X0120480Y0174284D01*
X0120539Y0174271D01*
X0120598Y0174255D01*
X0120655Y0174235D01*
X0120710Y0174212D01*
X0120765Y0174185D01*
X0120817Y0174156D01*
X0120868Y0174123D01*
X0120917Y0174087D01*
X0120963Y0174049D01*
X0121007Y0174007D01*
X0121049Y0173963D01*
X0121087Y0173917D01*
X0121123Y0173868D01*
X0121156Y0173817D01*
X0121185Y0173765D01*
X0121212Y0173710D01*
X0121235Y0173655D01*
X0121255Y0173598D01*
X0121271Y0173539D01*
X0121284Y0173480D01*
X0121293Y0173421D01*
X0121298Y0173360D01*
X0121300Y0173300D01*
X0121300Y0165300D01*
X0121298Y0165240D01*
X0121293Y0165179D01*
X0121284Y0165120D01*
X0121271Y0165061D01*
X0121255Y0165002D01*
X0121235Y0164945D01*
X0121212Y0164890D01*
X0121185Y0164835D01*
X0121156Y0164783D01*
X0121123Y0164732D01*
X0121087Y0164683D01*
X0121049Y0164637D01*
X0121007Y0164593D01*
X0120963Y0164551D01*
X0120917Y0164513D01*
X0120868Y0164477D01*
X0120817Y0164444D01*
X0120765Y0164415D01*
X0120710Y0164388D01*
X0120655Y0164365D01*
X0120598Y0164345D01*
X0120539Y0164329D01*
X0120480Y0164316D01*
X0120421Y0164307D01*
X0120360Y0164302D01*
X0120300Y0164300D01*
X0113300Y0169300D02*
X0112800Y0169300D01*
X0110800Y0169300D02*
X0110300Y0169300D01*
X0112800Y0177300D02*
X0120800Y0177300D01*
X0120860Y0177302D01*
X0120921Y0177307D01*
X0120980Y0177316D01*
X0121039Y0177329D01*
X0121098Y0177345D01*
X0121155Y0177365D01*
X0121210Y0177388D01*
X0121265Y0177415D01*
X0121317Y0177444D01*
X0121368Y0177477D01*
X0121417Y0177513D01*
X0121463Y0177551D01*
X0121507Y0177593D01*
X0121549Y0177637D01*
X0121587Y0177683D01*
X0121623Y0177732D01*
X0121656Y0177783D01*
X0121685Y0177835D01*
X0121712Y0177890D01*
X0121735Y0177945D01*
X0121755Y0178002D01*
X0121771Y0178061D01*
X0121784Y0178120D01*
X0121793Y0178179D01*
X0121798Y0178240D01*
X0121800Y0178300D01*
X0121800Y0195300D01*
X0121798Y0195360D01*
X0121793Y0195421D01*
X0121784Y0195480D01*
X0121771Y0195539D01*
X0121755Y0195598D01*
X0121735Y0195655D01*
X0121712Y0195710D01*
X0121685Y0195765D01*
X0121656Y0195817D01*
X0121623Y0195868D01*
X0121587Y0195917D01*
X0121549Y0195963D01*
X0121507Y0196007D01*
X0121463Y0196049D01*
X0121417Y0196087D01*
X0121368Y0196123D01*
X0121317Y0196156D01*
X0121265Y0196185D01*
X0121210Y0196212D01*
X0121155Y0196235D01*
X0121098Y0196255D01*
X0121039Y0196271D01*
X0120980Y0196284D01*
X0120921Y0196293D01*
X0120860Y0196298D01*
X0120800Y0196300D01*
X0112800Y0196300D01*
X0112740Y0196298D01*
X0112679Y0196293D01*
X0112620Y0196284D01*
X0112561Y0196271D01*
X0112502Y0196255D01*
X0112445Y0196235D01*
X0112390Y0196212D01*
X0112335Y0196185D01*
X0112283Y0196156D01*
X0112232Y0196123D01*
X0112183Y0196087D01*
X0112137Y0196049D01*
X0112093Y0196007D01*
X0112051Y0195963D01*
X0112013Y0195917D01*
X0111977Y0195868D01*
X0111944Y0195817D01*
X0111915Y0195765D01*
X0111888Y0195710D01*
X0111865Y0195655D01*
X0111845Y0195598D01*
X0111829Y0195539D01*
X0111816Y0195480D01*
X0111807Y0195421D01*
X0111802Y0195360D01*
X0111800Y0195300D01*
X0111800Y0178300D01*
X0111802Y0178240D01*
X0111807Y0178179D01*
X0111816Y0178120D01*
X0111829Y0178061D01*
X0111845Y0178002D01*
X0111865Y0177945D01*
X0111888Y0177890D01*
X0111915Y0177835D01*
X0111944Y0177783D01*
X0111977Y0177732D01*
X0112013Y0177683D01*
X0112051Y0177637D01*
X0112093Y0177593D01*
X0112137Y0177551D01*
X0112183Y0177513D01*
X0112232Y0177477D01*
X0112283Y0177444D01*
X0112335Y0177415D01*
X0112390Y0177388D01*
X0112445Y0177365D01*
X0112502Y0177345D01*
X0112561Y0177329D01*
X0112620Y0177316D01*
X0112679Y0177307D01*
X0112740Y0177302D01*
X0112800Y0177300D01*
X0116800Y0185300D02*
X0116800Y0185800D01*
X0116800Y0187800D02*
X0116800Y0188300D01*
X0129800Y0192300D02*
X0129800Y0167800D01*
X0132800Y0164800D01*
X0145800Y0164800D01*
X0148800Y0167800D01*
X0148800Y0192300D01*
X0148798Y0192376D01*
X0148792Y0192452D01*
X0148783Y0192527D01*
X0148769Y0192602D01*
X0148752Y0192676D01*
X0148731Y0192749D01*
X0148707Y0192821D01*
X0148678Y0192892D01*
X0148647Y0192961D01*
X0148612Y0193028D01*
X0148573Y0193093D01*
X0148531Y0193157D01*
X0148486Y0193218D01*
X0148438Y0193277D01*
X0148387Y0193333D01*
X0148333Y0193387D01*
X0148277Y0193438D01*
X0148218Y0193486D01*
X0148157Y0193531D01*
X0148093Y0193573D01*
X0148028Y0193612D01*
X0147961Y0193647D01*
X0147892Y0193678D01*
X0147821Y0193707D01*
X0147749Y0193731D01*
X0147676Y0193752D01*
X0147602Y0193769D01*
X0147527Y0193783D01*
X0147452Y0193792D01*
X0147376Y0193798D01*
X0147300Y0193800D01*
X0131300Y0193800D01*
X0131224Y0193798D01*
X0131148Y0193792D01*
X0131073Y0193783D01*
X0130998Y0193769D01*
X0130924Y0193752D01*
X0130851Y0193731D01*
X0130779Y0193707D01*
X0130708Y0193678D01*
X0130639Y0193647D01*
X0130572Y0193612D01*
X0130507Y0193573D01*
X0130443Y0193531D01*
X0130382Y0193486D01*
X0130323Y0193438D01*
X0130267Y0193387D01*
X0130213Y0193333D01*
X0130162Y0193277D01*
X0130114Y0193218D01*
X0130069Y0193157D01*
X0130027Y0193093D01*
X0129988Y0193028D01*
X0129953Y0192961D01*
X0129922Y0192892D01*
X0129893Y0192821D01*
X0129869Y0192749D01*
X0129848Y0192676D01*
X0129831Y0192602D01*
X0129817Y0192527D01*
X0129808Y0192452D01*
X0129802Y0192376D01*
X0129800Y0192300D01*
X0139300Y0185300D02*
X0139300Y0181800D01*
X0139300Y0176800D02*
X0134500Y0176800D01*
X0134500Y0178800D01*
X0144100Y0178800D01*
X0144100Y0176800D01*
X0139300Y0176800D01*
X0139300Y0173300D01*
X0135200Y0172300D02*
X0132700Y0172300D01*
X0133900Y0173600D02*
X0133900Y0171000D01*
X0177800Y0168300D02*
X0177800Y0166800D01*
X0178300Y0166300D01*
X0178300Y0152300D01*
X0177800Y0151800D01*
X0177800Y0150300D01*
X0177802Y0150240D01*
X0177807Y0150179D01*
X0177816Y0150120D01*
X0177829Y0150061D01*
X0177845Y0150002D01*
X0177865Y0149945D01*
X0177888Y0149890D01*
X0177915Y0149835D01*
X0177944Y0149783D01*
X0177977Y0149732D01*
X0178013Y0149683D01*
X0178051Y0149637D01*
X0178093Y0149593D01*
X0178137Y0149551D01*
X0178183Y0149513D01*
X0178232Y0149477D01*
X0178283Y0149444D01*
X0178335Y0149415D01*
X0178390Y0149388D01*
X0178445Y0149365D01*
X0178502Y0149345D01*
X0178561Y0149329D01*
X0178620Y0149316D01*
X0178679Y0149307D01*
X0178740Y0149302D01*
X0178800Y0149300D01*
X0184800Y0149300D01*
X0184860Y0149302D01*
X0184921Y0149307D01*
X0184980Y0149316D01*
X0185039Y0149329D01*
X0185098Y0149345D01*
X0185155Y0149365D01*
X0185210Y0149388D01*
X0185265Y0149415D01*
X0185317Y0149444D01*
X0185368Y0149477D01*
X0185417Y0149513D01*
X0185463Y0149551D01*
X0185507Y0149593D01*
X0185549Y0149637D01*
X0185587Y0149683D01*
X0185623Y0149732D01*
X0185656Y0149783D01*
X0185685Y0149835D01*
X0185712Y0149890D01*
X0185735Y0149945D01*
X0185755Y0150002D01*
X0185771Y0150061D01*
X0185784Y0150120D01*
X0185793Y0150179D01*
X0185798Y0150240D01*
X0185800Y0150300D01*
X0185800Y0151800D01*
X0185300Y0152300D01*
X0185300Y0166300D01*
X0185800Y0166800D01*
X0185800Y0168300D01*
X0185798Y0168360D01*
X0185793Y0168421D01*
X0185784Y0168480D01*
X0185771Y0168539D01*
X0185755Y0168598D01*
X0185735Y0168655D01*
X0185712Y0168710D01*
X0185685Y0168765D01*
X0185656Y0168817D01*
X0185623Y0168868D01*
X0185587Y0168917D01*
X0185549Y0168963D01*
X0185507Y0169007D01*
X0185463Y0169049D01*
X0185417Y0169087D01*
X0185368Y0169123D01*
X0185317Y0169156D01*
X0185265Y0169185D01*
X0185210Y0169212D01*
X0185155Y0169235D01*
X0185098Y0169255D01*
X0185039Y0169271D01*
X0184980Y0169284D01*
X0184921Y0169293D01*
X0184860Y0169298D01*
X0184800Y0169300D01*
X0178800Y0169300D01*
X0178740Y0169298D01*
X0178679Y0169293D01*
X0178620Y0169284D01*
X0178561Y0169271D01*
X0178502Y0169255D01*
X0178445Y0169235D01*
X0178390Y0169212D01*
X0178335Y0169185D01*
X0178283Y0169156D01*
X0178232Y0169123D01*
X0178183Y0169087D01*
X0178137Y0169049D01*
X0178093Y0169007D01*
X0178051Y0168963D01*
X0178013Y0168917D01*
X0177977Y0168868D01*
X0177944Y0168817D01*
X0177915Y0168765D01*
X0177888Y0168710D01*
X0177865Y0168655D01*
X0177845Y0168598D01*
X0177829Y0168539D01*
X0177816Y0168480D01*
X0177807Y0168421D01*
X0177802Y0168360D01*
X0177800Y0168300D01*
X0175800Y0186800D02*
X0175802Y0186952D01*
X0175808Y0187103D01*
X0175817Y0187254D01*
X0175831Y0187406D01*
X0175848Y0187556D01*
X0175869Y0187706D01*
X0175894Y0187856D01*
X0175922Y0188005D01*
X0175955Y0188153D01*
X0175991Y0188300D01*
X0176030Y0188447D01*
X0176074Y0188592D01*
X0176121Y0188736D01*
X0176172Y0188879D01*
X0176226Y0189020D01*
X0176284Y0189161D01*
X0176345Y0189299D01*
X0176410Y0189436D01*
X0176479Y0189572D01*
X0176550Y0189705D01*
X0176625Y0189837D01*
X0176704Y0189967D01*
X0176785Y0190094D01*
X0176870Y0190220D01*
X0176958Y0190344D01*
X0177049Y0190465D01*
X0177143Y0190584D01*
X0177241Y0190700D01*
X0177341Y0190814D01*
X0177443Y0190926D01*
X0177549Y0191034D01*
X0177657Y0191140D01*
X0177768Y0191244D01*
X0177882Y0191344D01*
X0177998Y0191442D01*
X0178117Y0191536D01*
X0187800Y0186800D02*
X0187798Y0186646D01*
X0187792Y0186492D01*
X0187782Y0186338D01*
X0187768Y0186184D01*
X0187751Y0186031D01*
X0187729Y0185879D01*
X0187703Y0185727D01*
X0187674Y0185575D01*
X0187640Y0185425D01*
X0187603Y0185275D01*
X0187562Y0185127D01*
X0187517Y0184979D01*
X0187468Y0184833D01*
X0187416Y0184688D01*
X0187360Y0184545D01*
X0187300Y0184402D01*
X0187237Y0184262D01*
X0187170Y0184123D01*
X0187099Y0183986D01*
X0187025Y0183851D01*
X0186948Y0183718D01*
X0186867Y0183586D01*
X0186783Y0183457D01*
X0186695Y0183330D01*
X0186604Y0183206D01*
X0186511Y0183084D01*
X0186413Y0182964D01*
X0186313Y0182847D01*
X0186210Y0182732D01*
X0186104Y0182620D01*
X0185996Y0182511D01*
X0185884Y0182405D01*
X0185770Y0182301D01*
X0185653Y0182201D01*
X0185534Y0182103D01*
X0185412Y0182009D01*
X0185287Y0181918D01*
X0187800Y0186800D02*
X0187798Y0186950D01*
X0187792Y0187101D01*
X0187783Y0187251D01*
X0187770Y0187400D01*
X0187753Y0187550D01*
X0187732Y0187699D01*
X0187708Y0187847D01*
X0187680Y0187995D01*
X0187648Y0188142D01*
X0187613Y0188288D01*
X0187573Y0188433D01*
X0187531Y0188577D01*
X0187484Y0188720D01*
X0187434Y0188862D01*
X0187381Y0189003D01*
X0187324Y0189142D01*
X0187264Y0189280D01*
X0187200Y0189416D01*
X0187133Y0189550D01*
X0187062Y0189683D01*
X0186988Y0189814D01*
X0186911Y0189943D01*
X0186830Y0190070D01*
X0186747Y0190195D01*
X0186660Y0190318D01*
X0186571Y0190439D01*
X0186478Y0190557D01*
X0186382Y0190673D01*
X0186284Y0190787D01*
X0186183Y0190898D01*
X0186078Y0191007D01*
X0185972Y0191112D01*
X0185862Y0191216D01*
X0185750Y0191316D01*
X0185636Y0191414D01*
X0185519Y0191508D01*
X0185400Y0191600D01*
X0175800Y0186800D02*
X0175802Y0186648D01*
X0175808Y0186497D01*
X0175817Y0186346D01*
X0175831Y0186194D01*
X0175848Y0186044D01*
X0175869Y0185894D01*
X0175894Y0185744D01*
X0175922Y0185595D01*
X0175955Y0185447D01*
X0175991Y0185300D01*
X0176030Y0185153D01*
X0176074Y0185008D01*
X0176121Y0184864D01*
X0176172Y0184721D01*
X0176226Y0184580D01*
X0176284Y0184439D01*
X0176345Y0184301D01*
X0176410Y0184164D01*
X0176479Y0184028D01*
X0176550Y0183895D01*
X0176625Y0183763D01*
X0176704Y0183633D01*
X0176785Y0183506D01*
X0176870Y0183380D01*
X0176958Y0183256D01*
X0177049Y0183135D01*
X0177143Y0183016D01*
X0177241Y0182900D01*
X0177341Y0182786D01*
X0177443Y0182674D01*
X0177549Y0182566D01*
X0177657Y0182460D01*
X0177768Y0182356D01*
X0177882Y0182256D01*
X0177998Y0182158D01*
X0178117Y0182064D01*
D12*
X0189800Y0186800D02*
X0189798Y0186992D01*
X0189791Y0187184D01*
X0189779Y0187376D01*
X0189763Y0187568D01*
X0189742Y0187759D01*
X0189717Y0187949D01*
X0189687Y0188139D01*
X0189653Y0188328D01*
X0189614Y0188516D01*
X0189570Y0188703D01*
X0189522Y0188889D01*
X0189470Y0189074D01*
X0189413Y0189258D01*
X0189352Y0189440D01*
X0189286Y0189620D01*
X0189216Y0189799D01*
X0189142Y0189977D01*
X0189064Y0190152D01*
X0188981Y0190326D01*
X0188894Y0190497D01*
X0188804Y0190666D01*
X0188709Y0190833D01*
X0188610Y0190998D01*
X0188507Y0191161D01*
X0188400Y0191320D01*
X0188290Y0191478D01*
X0188176Y0191632D01*
X0188058Y0191784D01*
X0187936Y0191933D01*
X0187811Y0192079D01*
X0187683Y0192221D01*
X0187551Y0192361D01*
X0187416Y0192498D01*
X0187277Y0192631D01*
X0187136Y0192761D01*
X0186991Y0192887D01*
X0186843Y0193010D01*
X0186693Y0193129D01*
X0186539Y0193245D01*
X0186383Y0193357D01*
X0186224Y0193465D01*
X0186063Y0193570D01*
X0185899Y0193670D01*
X0185733Y0193766D01*
X0185565Y0193859D01*
X0177831Y0193746D02*
X0177662Y0193647D01*
X0177496Y0193543D01*
X0177332Y0193436D01*
X0177171Y0193325D01*
X0177013Y0193210D01*
X0176858Y0193091D01*
X0176705Y0192968D01*
X0176556Y0192842D01*
X0176410Y0192712D01*
X0176267Y0192578D01*
X0176127Y0192441D01*
X0175991Y0192301D01*
X0175858Y0192157D01*
X0175729Y0192010D01*
X0175603Y0191860D01*
X0175482Y0191707D01*
X0175363Y0191551D01*
X0175249Y0191392D01*
X0175139Y0191231D01*
X0175033Y0191066D01*
X0174930Y0190900D01*
X0174832Y0190730D01*
X0174738Y0190559D01*
X0174648Y0190385D01*
X0174563Y0190209D01*
X0174481Y0190031D01*
X0174405Y0189851D01*
X0174332Y0189669D01*
X0174264Y0189486D01*
X0174201Y0189301D01*
X0174142Y0189114D01*
X0174088Y0188926D01*
X0174038Y0188737D01*
X0173993Y0188547D01*
X0173953Y0188355D01*
X0173917Y0188163D01*
X0173886Y0187970D01*
X0173860Y0187776D01*
X0173838Y0187581D01*
X0173822Y0187386D01*
X0173810Y0187191D01*
X0173802Y0186995D01*
X0173800Y0186800D01*
X0173802Y0186607D01*
X0173809Y0186414D01*
X0173821Y0186222D01*
X0173837Y0186029D01*
X0173858Y0185837D01*
X0173884Y0185646D01*
X0173914Y0185456D01*
X0173949Y0185266D01*
X0173988Y0185077D01*
X0174032Y0184889D01*
X0174080Y0184702D01*
X0174133Y0184516D01*
X0174190Y0184332D01*
X0174252Y0184149D01*
X0174318Y0183968D01*
X0174389Y0183788D01*
X0174463Y0183610D01*
X0174542Y0183434D01*
X0174626Y0183260D01*
X0174713Y0183088D01*
X0174805Y0182918D01*
X0174901Y0182751D01*
X0175000Y0182585D01*
X0175104Y0182422D01*
X0175211Y0182262D01*
X0175323Y0182105D01*
X0175438Y0181950D01*
X0175557Y0181798D01*
X0175679Y0181649D01*
X0175805Y0181502D01*
X0175935Y0181359D01*
X0176068Y0181219D01*
X0176204Y0181083D01*
X0176344Y0180949D01*
X0176486Y0180820D01*
X0176632Y0180693D01*
X0186922Y0180654D02*
X0187070Y0180781D01*
X0187215Y0180911D01*
X0187356Y0181044D01*
X0187495Y0181181D01*
X0187630Y0181321D01*
X0187761Y0181465D01*
X0187889Y0181612D01*
X0188014Y0181761D01*
X0188135Y0181914D01*
X0188252Y0182069D01*
X0188365Y0182228D01*
X0188474Y0182389D01*
X0188579Y0182553D01*
X0188681Y0182719D01*
X0188778Y0182888D01*
X0188871Y0183058D01*
X0188960Y0183232D01*
X0189045Y0183407D01*
X0189125Y0183584D01*
X0189201Y0183763D01*
X0189273Y0183944D01*
X0189340Y0184127D01*
X0189403Y0184311D01*
X0189461Y0184497D01*
X0189515Y0184684D01*
X0189564Y0184872D01*
X0189609Y0185062D01*
X0189649Y0185252D01*
X0189684Y0185444D01*
X0189715Y0185636D01*
X0189741Y0185829D01*
X0189762Y0186023D01*
X0189779Y0186217D01*
X0189791Y0186411D01*
X0189798Y0186605D01*
X0189800Y0186800D01*
X0142300Y0137800D02*
X0139300Y0137800D01*
X0136300Y0137800D01*
X0136300Y0135800D02*
X0139300Y0135800D01*
X0142300Y0135800D01*
X0112800Y0166300D02*
X0112800Y0169300D01*
X0112800Y0172300D01*
X0110800Y0172300D02*
X0110800Y0169300D01*
X0110800Y0166300D01*
X0113800Y0185800D02*
X0116800Y0185800D01*
X0119800Y0185800D01*
X0119800Y0187800D02*
X0116800Y0187800D01*
X0113800Y0187800D01*
X0072800Y0032300D02*
X0072800Y0029300D01*
X0072800Y0026300D01*
X0070800Y0026300D02*
X0070800Y0029300D01*
X0070800Y0032300D01*
X0139854Y0007831D02*
X0139953Y0007662D01*
X0140057Y0007496D01*
X0140164Y0007332D01*
X0140275Y0007171D01*
X0140390Y0007013D01*
X0140509Y0006858D01*
X0140632Y0006705D01*
X0140758Y0006556D01*
X0140888Y0006410D01*
X0141022Y0006267D01*
X0141159Y0006127D01*
X0141299Y0005991D01*
X0141443Y0005858D01*
X0141590Y0005729D01*
X0141740Y0005603D01*
X0141893Y0005482D01*
X0142049Y0005363D01*
X0142208Y0005249D01*
X0142369Y0005139D01*
X0142534Y0005033D01*
X0142700Y0004930D01*
X0142870Y0004832D01*
X0143041Y0004738D01*
X0143215Y0004648D01*
X0143391Y0004563D01*
X0143569Y0004481D01*
X0143749Y0004405D01*
X0143931Y0004332D01*
X0144114Y0004264D01*
X0144299Y0004201D01*
X0144486Y0004142D01*
X0144674Y0004088D01*
X0144863Y0004038D01*
X0145053Y0003993D01*
X0145245Y0003953D01*
X0145437Y0003917D01*
X0145630Y0003886D01*
X0145824Y0003860D01*
X0146019Y0003838D01*
X0146214Y0003822D01*
X0146409Y0003810D01*
X0146605Y0003802D01*
X0146800Y0003800D01*
X0139741Y0015565D02*
X0139834Y0015733D01*
X0139930Y0015899D01*
X0140030Y0016063D01*
X0140135Y0016224D01*
X0140243Y0016383D01*
X0140355Y0016539D01*
X0140471Y0016693D01*
X0140590Y0016843D01*
X0140713Y0016991D01*
X0140839Y0017136D01*
X0140969Y0017277D01*
X0141102Y0017416D01*
X0141239Y0017551D01*
X0141379Y0017683D01*
X0141521Y0017811D01*
X0141667Y0017936D01*
X0141816Y0018058D01*
X0141968Y0018176D01*
X0142122Y0018290D01*
X0142280Y0018400D01*
X0142439Y0018507D01*
X0142602Y0018610D01*
X0142767Y0018709D01*
X0142934Y0018804D01*
X0143103Y0018894D01*
X0143274Y0018981D01*
X0143448Y0019064D01*
X0143623Y0019142D01*
X0143801Y0019216D01*
X0143980Y0019286D01*
X0144160Y0019352D01*
X0144342Y0019413D01*
X0144526Y0019470D01*
X0144711Y0019522D01*
X0144897Y0019570D01*
X0145084Y0019614D01*
X0145272Y0019653D01*
X0145461Y0019687D01*
X0145651Y0019717D01*
X0145841Y0019742D01*
X0146032Y0019763D01*
X0146224Y0019779D01*
X0146416Y0019791D01*
X0146608Y0019798D01*
X0146800Y0019800D01*
X0152907Y0006632D02*
X0152780Y0006486D01*
X0152651Y0006344D01*
X0152517Y0006204D01*
X0152381Y0006068D01*
X0152241Y0005935D01*
X0152098Y0005805D01*
X0151951Y0005679D01*
X0151802Y0005557D01*
X0151650Y0005438D01*
X0151495Y0005323D01*
X0151338Y0005211D01*
X0151178Y0005104D01*
X0151015Y0005000D01*
X0150849Y0004901D01*
X0150682Y0004805D01*
X0150512Y0004713D01*
X0150340Y0004626D01*
X0150166Y0004542D01*
X0149990Y0004463D01*
X0149812Y0004389D01*
X0149632Y0004318D01*
X0149451Y0004252D01*
X0149268Y0004190D01*
X0149084Y0004133D01*
X0148898Y0004080D01*
X0148711Y0004032D01*
X0148523Y0003988D01*
X0148334Y0003949D01*
X0148144Y0003914D01*
X0147954Y0003884D01*
X0147763Y0003858D01*
X0147571Y0003837D01*
X0147378Y0003821D01*
X0147186Y0003809D01*
X0146993Y0003802D01*
X0146800Y0003800D01*
X0152946Y0016922D02*
X0152819Y0017070D01*
X0152689Y0017215D01*
X0152556Y0017356D01*
X0152419Y0017495D01*
X0152279Y0017630D01*
X0152135Y0017761D01*
X0151988Y0017889D01*
X0151839Y0018014D01*
X0151686Y0018135D01*
X0151531Y0018252D01*
X0151372Y0018365D01*
X0151211Y0018474D01*
X0151047Y0018579D01*
X0150881Y0018681D01*
X0150712Y0018778D01*
X0150542Y0018871D01*
X0150368Y0018960D01*
X0150193Y0019045D01*
X0150016Y0019125D01*
X0149837Y0019201D01*
X0149656Y0019273D01*
X0149473Y0019340D01*
X0149289Y0019403D01*
X0149103Y0019461D01*
X0148916Y0019515D01*
X0148728Y0019564D01*
X0148538Y0019609D01*
X0148348Y0019649D01*
X0148156Y0019684D01*
X0147964Y0019715D01*
X0147771Y0019741D01*
X0147577Y0019762D01*
X0147383Y0019779D01*
X0147189Y0019791D01*
X0146995Y0019798D01*
X0146800Y0019800D01*
D13*
X0155800Y0018801D02*
X0156551Y0018050D01*
X0158052Y0018050D01*
X0158803Y0018801D01*
X0158803Y0020302D01*
X0157301Y0020302D01*
X0155800Y0021803D02*
X0155800Y0018801D01*
X0155800Y0021803D02*
X0156551Y0022554D01*
X0158052Y0022554D01*
X0158803Y0021803D01*
X0160404Y0022554D02*
X0162656Y0022554D01*
X0163406Y0021803D01*
X0163406Y0020302D01*
X0162656Y0019551D01*
X0160404Y0019551D01*
X0160404Y0018050D02*
X0160404Y0022554D01*
X0161905Y0019551D02*
X0163406Y0018050D01*
X0165008Y0018050D02*
X0168010Y0018050D01*
X0169612Y0018050D02*
X0172614Y0018050D01*
X0174216Y0018050D02*
X0174216Y0022554D01*
X0177218Y0018050D01*
X0177218Y0022554D01*
X0172614Y0022554D02*
X0169612Y0022554D01*
X0169612Y0018050D01*
X0169612Y0020302D02*
X0171113Y0020302D01*
X0168010Y0022554D02*
X0165008Y0022554D01*
X0165008Y0018050D01*
X0165008Y0020302D02*
X0166509Y0020302D01*
X0149862Y0073050D02*
X0149862Y0077554D01*
X0152864Y0077554D01*
X0151363Y0075302D02*
X0149862Y0075302D01*
X0148260Y0076053D02*
X0148260Y0073050D01*
X0146008Y0073050D01*
X0145258Y0073801D01*
X0145258Y0076053D01*
X0143656Y0076803D02*
X0143656Y0073801D01*
X0142906Y0073050D01*
X0141405Y0073050D01*
X0140654Y0073801D01*
X0143656Y0076803D01*
X0142906Y0077554D01*
X0141405Y0077554D01*
X0140654Y0076803D01*
X0140654Y0073801D01*
X0139053Y0073050D02*
X0136050Y0073050D01*
X0137551Y0073050D02*
X0137551Y0077554D01*
X0136050Y0076053D01*
X0132299Y0125332D02*
X0129297Y0125332D01*
X0128546Y0126083D01*
X0128546Y0127584D01*
X0129297Y0128335D01*
X0132299Y0125332D01*
X0133050Y0126083D01*
X0133050Y0127584D01*
X0132299Y0128335D01*
X0129297Y0128335D01*
X0132299Y0129936D02*
X0132299Y0130687D01*
X0133050Y0130687D01*
X0133050Y0129936D01*
X0132299Y0129936D01*
X0133050Y0132238D02*
X0133050Y0135241D01*
X0133050Y0133739D02*
X0128546Y0133739D01*
X0130047Y0132238D01*
X0130047Y0136842D02*
X0132299Y0136842D01*
X0133050Y0137593D01*
X0133050Y0139845D01*
X0130047Y0139845D01*
X0130798Y0141446D02*
X0130798Y0142947D01*
X0133050Y0141446D02*
X0128546Y0141446D01*
X0128546Y0144449D01*
X0129634Y0158550D02*
X0132637Y0158550D01*
X0131136Y0158550D02*
X0131136Y0163054D01*
X0129634Y0161553D01*
X0134238Y0162303D02*
X0134238Y0159301D01*
X0137241Y0162303D01*
X0137241Y0159301D01*
X0136490Y0158550D01*
X0134989Y0158550D01*
X0134238Y0159301D01*
X0134238Y0162303D02*
X0134989Y0163054D01*
X0136490Y0163054D01*
X0137241Y0162303D01*
X0138842Y0161553D02*
X0138842Y0159301D01*
X0139593Y0158550D01*
X0141845Y0158550D01*
X0141845Y0161553D01*
X0143446Y0160802D02*
X0144947Y0160802D01*
X0143446Y0158550D02*
X0143446Y0163054D01*
X0146449Y0163054D01*
X0128050Y0168583D02*
X0127299Y0167832D01*
X0124297Y0170835D01*
X0127299Y0170835D01*
X0128050Y0170084D01*
X0128050Y0168583D01*
X0127299Y0167832D02*
X0124297Y0167832D01*
X0123546Y0168583D01*
X0123546Y0170084D01*
X0124297Y0170835D01*
X0127299Y0172436D02*
X0127299Y0173187D01*
X0128050Y0173187D01*
X0128050Y0172436D01*
X0127299Y0172436D01*
X0128050Y0174738D02*
X0128050Y0177741D01*
X0128050Y0176239D02*
X0123546Y0176239D01*
X0125047Y0174738D01*
X0125047Y0179342D02*
X0127299Y0179342D01*
X0128050Y0180093D01*
X0128050Y0182345D01*
X0125047Y0182345D01*
X0125798Y0183946D02*
X0125798Y0185447D01*
X0123546Y0183946D02*
X0123546Y0186949D01*
X0123546Y0183946D02*
X0128050Y0183946D01*
X0109752Y0183300D02*
X0108173Y0183300D01*
X0107546Y0177800D02*
X0091054Y0177800D01*
X0091047Y0176426D02*
X0090297Y0176426D01*
X0089546Y0175675D01*
X0089546Y0174174D01*
X0090297Y0173424D01*
X0090297Y0171822D02*
X0093299Y0168820D01*
X0094050Y0169570D01*
X0094050Y0171072D01*
X0093299Y0171822D01*
X0090297Y0171822D01*
X0089546Y0171072D01*
X0089546Y0169570D01*
X0090297Y0168820D01*
X0093299Y0168820D01*
X0090297Y0167218D02*
X0093299Y0164216D01*
X0094050Y0164216D01*
X0094050Y0162614D02*
X0094050Y0159612D01*
X0094050Y0161113D02*
X0089546Y0161113D01*
X0091047Y0159612D01*
X0090297Y0158010D02*
X0091798Y0158010D01*
X0092549Y0157260D01*
X0092549Y0155008D01*
X0094050Y0155008D02*
X0089546Y0155008D01*
X0089546Y0157260D01*
X0090297Y0158010D01*
X0090297Y0153406D02*
X0089546Y0152656D01*
X0089546Y0151155D01*
X0090297Y0150404D01*
X0093299Y0150404D01*
X0094050Y0151155D01*
X0094050Y0152656D01*
X0093299Y0153406D01*
X0094050Y0148803D02*
X0089546Y0148803D01*
X0091047Y0147301D01*
X0089546Y0145800D01*
X0094050Y0145800D01*
X0103801Y0158550D02*
X0103050Y0159301D01*
X0106053Y0162303D01*
X0106053Y0159301D01*
X0105302Y0158550D01*
X0103801Y0158550D01*
X0103050Y0159301D02*
X0103050Y0162303D01*
X0103801Y0163054D01*
X0105302Y0163054D01*
X0106053Y0162303D01*
X0107654Y0159301D02*
X0108405Y0159301D01*
X0108405Y0158550D01*
X0107654Y0158550D01*
X0107654Y0159301D01*
X0109956Y0158550D02*
X0112958Y0158550D01*
X0111457Y0158550D02*
X0111457Y0163054D01*
X0109956Y0161553D01*
X0114560Y0161553D02*
X0114560Y0159301D01*
X0115310Y0158550D01*
X0117562Y0158550D01*
X0117562Y0161553D01*
X0119164Y0160802D02*
X0120665Y0160802D01*
X0119164Y0158550D02*
X0119164Y0163054D01*
X0122166Y0163054D01*
X0100427Y0183300D02*
X0098173Y0183300D01*
X0091054Y0177800D02*
X0090901Y0177999D01*
X0090753Y0178201D01*
X0090610Y0178406D01*
X0090472Y0178615D01*
X0090339Y0178827D01*
X0090211Y0179042D01*
X0090089Y0179260D01*
X0089971Y0179481D01*
X0089859Y0179705D01*
X0089752Y0179931D01*
X0089651Y0180160D01*
X0089555Y0180391D01*
X0089464Y0180625D01*
X0089379Y0180860D01*
X0089300Y0181098D01*
X0089227Y0181337D01*
X0089159Y0181578D01*
X0089097Y0181820D01*
X0089041Y0182064D01*
X0088990Y0182310D01*
X0088946Y0182556D01*
X0088907Y0182803D01*
X0088875Y0183051D01*
X0088848Y0183300D01*
X0090427Y0183300D01*
X0083729Y0178335D02*
X0083729Y0195265D01*
X0049871Y0195265D01*
X0049871Y0178335D01*
X0083729Y0178335D01*
X0091047Y0176426D02*
X0094050Y0173424D01*
X0094050Y0176426D01*
X0107546Y0177800D02*
X0107701Y0178002D01*
X0107851Y0178207D01*
X0107997Y0178416D01*
X0108137Y0178629D01*
X0108272Y0178845D01*
X0108401Y0179064D01*
X0108525Y0179286D01*
X0108644Y0179511D01*
X0108757Y0179739D01*
X0108865Y0179969D01*
X0108967Y0180202D01*
X0109064Y0180438D01*
X0109155Y0180676D01*
X0109240Y0180915D01*
X0109319Y0181157D01*
X0109392Y0181401D01*
X0109459Y0181646D01*
X0109521Y0181893D01*
X0109576Y0182142D01*
X0109625Y0182392D01*
X0109668Y0182642D01*
X0109705Y0182894D01*
X0109736Y0183147D01*
X0109761Y0183400D01*
X0109780Y0183654D01*
X0109793Y0183908D01*
X0109799Y0184162D01*
X0109799Y0184417D01*
X0109793Y0184671D01*
X0109781Y0184926D01*
X0109763Y0185179D01*
X0109739Y0185433D01*
X0109708Y0185685D01*
X0109672Y0185937D01*
X0109629Y0186188D01*
X0109580Y0186438D01*
X0109525Y0186686D01*
X0109464Y0186933D01*
X0109398Y0187179D01*
X0109325Y0187423D01*
X0109246Y0187665D01*
X0109162Y0187905D01*
X0109071Y0188143D01*
X0108975Y0188379D01*
X0108874Y0188612D01*
X0108766Y0188843D01*
X0108654Y0189071D01*
X0108535Y0189296D01*
X0108411Y0189518D01*
X0108282Y0189738D01*
X0108148Y0189954D01*
X0108008Y0190167D01*
X0107863Y0190376D01*
X0107714Y0190582D01*
X0107559Y0190784D01*
X0107399Y0190982D01*
X0107235Y0191176D01*
X0107066Y0191367D01*
X0106893Y0191553D01*
X0106715Y0191735D01*
X0106532Y0191912D01*
X0106346Y0192085D01*
X0106155Y0192254D01*
X0105960Y0192418D01*
X0105761Y0192577D01*
X0105559Y0192731D01*
X0105353Y0192880D01*
X0105143Y0193024D01*
X0104930Y0193163D01*
X0104713Y0193297D01*
X0104494Y0193426D01*
X0104271Y0193549D01*
X0104045Y0193666D01*
X0103817Y0193779D01*
X0103586Y0193885D01*
X0103352Y0193986D01*
X0103116Y0194082D01*
X0102878Y0194171D01*
X0102638Y0194255D01*
X0102396Y0194333D01*
X0096204Y0194333D02*
X0095960Y0194255D01*
X0095718Y0194170D01*
X0095479Y0194080D01*
X0095241Y0193984D01*
X0095006Y0193882D01*
X0094773Y0193774D01*
X0094543Y0193661D01*
X0094316Y0193542D01*
X0094092Y0193418D01*
X0093871Y0193288D01*
X0093654Y0193153D01*
X0093439Y0193012D01*
X0093228Y0192866D01*
X0093021Y0192716D01*
X0092818Y0192560D01*
X0092618Y0192399D01*
X0092422Y0192234D01*
X0092231Y0192064D01*
X0092043Y0191889D01*
X0091860Y0191709D01*
X0091682Y0191526D01*
X0091507Y0191337D01*
X0091338Y0191145D01*
X0091173Y0190949D01*
X0091013Y0190748D01*
X0090859Y0190544D01*
X0090709Y0190336D01*
X0090564Y0190125D01*
X0090424Y0189910D01*
X0090290Y0189692D01*
X0090161Y0189470D01*
X0090038Y0189246D01*
X0089920Y0189018D01*
X0089807Y0188788D01*
X0089701Y0188555D01*
X0089600Y0188319D01*
X0089504Y0188081D01*
X0089415Y0187841D01*
X0089332Y0187599D01*
X0089254Y0187354D01*
X0089183Y0187108D01*
X0089117Y0186860D01*
X0089058Y0186611D01*
X0089004Y0186361D01*
X0088957Y0186109D01*
X0088916Y0185856D01*
X0088881Y0185602D01*
X0088852Y0185347D01*
X0088830Y0185092D01*
X0088814Y0184836D01*
X0088804Y0184580D01*
X0088800Y0184324D01*
X0088803Y0184067D01*
X0088811Y0183811D01*
X0088826Y0183555D01*
X0088848Y0183300D01*
X0089546Y0167218D02*
X0090297Y0167218D01*
X0089546Y0167218D02*
X0089546Y0164216D01*
X0066800Y0194300D02*
X0066800Y0201800D01*
X0059300Y0201800D01*
X0059300Y0194674D01*
X0058926Y0194674D01*
X0064365Y0066108D02*
X0064048Y0065791D01*
X0064048Y0065157D01*
X0064365Y0064840D01*
X0065633Y0064840D01*
X0065950Y0065157D01*
X0065950Y0065791D01*
X0065633Y0066108D01*
X0065633Y0063898D02*
X0065950Y0063581D01*
X0065950Y0062947D01*
X0065633Y0062630D01*
X0064999Y0062947D02*
X0064682Y0062630D01*
X0064365Y0062630D01*
X0064048Y0062947D01*
X0064048Y0063581D01*
X0064365Y0063898D01*
X0064999Y0063581D02*
X0065316Y0063898D01*
X0065633Y0063898D01*
X0064999Y0063581D02*
X0064999Y0062947D01*
X0064365Y0061688D02*
X0064048Y0061371D01*
X0064048Y0060737D01*
X0064365Y0060420D01*
X0065633Y0060420D01*
X0065950Y0060737D01*
X0065950Y0061371D01*
X0065633Y0061688D01*
X0064365Y0061688D01*
X0029300Y0014300D02*
X0031800Y0011800D01*
X0036800Y0011800D01*
X0029300Y0011800D02*
X0026800Y0011800D01*
X0061800Y0011800D02*
X0066800Y0011800D01*
X0069300Y0009300D01*
X0069300Y0011800D02*
X0071800Y0011800D01*
X0188046Y0165738D02*
X0188046Y0167990D01*
X0188797Y0168741D01*
X0190298Y0168741D01*
X0191049Y0167990D01*
X0191049Y0165738D01*
X0192550Y0165738D02*
X0188046Y0165738D01*
X0191049Y0167239D02*
X0192550Y0168741D01*
X0192550Y0170342D02*
X0192550Y0173345D01*
X0192550Y0174946D02*
X0192550Y0177198D01*
X0191799Y0177949D01*
X0188797Y0177949D01*
X0188046Y0177198D01*
X0188046Y0174946D01*
X0192550Y0174946D01*
X0190298Y0171843D02*
X0190298Y0170342D01*
X0188046Y0170342D02*
X0192550Y0170342D01*
X0188046Y0170342D02*
X0188046Y0173345D01*
D14*
X0148800Y0061800D03*
D15*
X0139300Y0181300D03*
D16*
X0074300Y0066800D02*
X0069300Y0066800D01*
X0066800Y0064300D01*
X0066800Y0039300D01*
X0069300Y0036800D01*
X0074300Y0036800D01*
X0076800Y0039300D01*
X0076800Y0064300D01*
X0074300Y0066800D01*
X0074300Y0021800D02*
X0059300Y0021800D01*
X0051800Y0014300D01*
X0051800Y0009300D01*
X0059300Y0001800D01*
X0074300Y0001800D01*
X0081800Y0009300D01*
X0081800Y0014300D01*
X0074300Y0021800D01*
X0046800Y0014300D02*
X0046800Y0009300D01*
X0039300Y0001800D01*
X0024300Y0001800D01*
X0016800Y0009300D01*
X0016800Y0014300D01*
X0024300Y0021800D01*
X0039300Y0021800D01*
X0046800Y0014300D01*
D17*
X0044300Y0031050D03*
X0056800Y0031050D03*
X0056800Y0052550D03*
X0044300Y0052550D03*
X0181800Y0148550D03*
X0181800Y0170050D03*
D18*
X0180681Y0164644D02*
X0183016Y0162309D01*
X0183600Y0162893D01*
X0183600Y0164060D01*
X0183016Y0164644D01*
X0180681Y0164644D01*
X0180097Y0164060D01*
X0180097Y0162893D01*
X0180681Y0162309D01*
X0183016Y0162309D01*
X0183016Y0161053D02*
X0183600Y0160469D01*
X0183600Y0159302D01*
X0183016Y0158718D01*
X0183016Y0157462D02*
X0182432Y0157462D01*
X0181849Y0156878D01*
X0181849Y0156294D01*
X0181849Y0156878D02*
X0181265Y0157462D01*
X0180681Y0157462D01*
X0180097Y0156878D01*
X0180097Y0155711D01*
X0180681Y0155127D01*
X0183016Y0155127D02*
X0183600Y0155711D01*
X0183600Y0156878D01*
X0183016Y0157462D01*
X0181849Y0159886D02*
X0181849Y0160469D01*
X0182432Y0161053D01*
X0183016Y0161053D01*
X0181849Y0160469D02*
X0181265Y0161053D01*
X0180681Y0161053D01*
X0180097Y0160469D01*
X0180097Y0159302D01*
X0180681Y0158718D01*
X0079322Y0172000D02*
X0076253Y0172000D01*
X0076253Y0176604D01*
X0079322Y0176604D01*
X0077788Y0174302D02*
X0076253Y0174302D01*
X0074718Y0172767D02*
X0074718Y0175837D01*
X0073951Y0176604D01*
X0071649Y0176604D01*
X0071649Y0172000D01*
X0073951Y0172000D01*
X0074718Y0172767D01*
X0070115Y0172000D02*
X0068580Y0172000D01*
X0069347Y0172000D02*
X0069347Y0176604D01*
X0068580Y0176604D02*
X0070115Y0176604D01*
X0067045Y0172000D02*
X0063976Y0172000D01*
X0063976Y0176604D01*
X0062441Y0175837D02*
X0061674Y0176604D01*
X0060139Y0176604D01*
X0059372Y0175837D01*
X0059372Y0175069D01*
X0060139Y0174302D01*
X0061674Y0174302D01*
X0062441Y0173535D01*
X0062441Y0172767D01*
X0061674Y0172000D01*
X0060139Y0172000D01*
X0059372Y0172767D01*
X0058500Y0044534D02*
X0057332Y0042782D01*
X0056165Y0044534D01*
X0054997Y0042782D02*
X0058500Y0042782D01*
X0057916Y0041526D02*
X0058500Y0040943D01*
X0058500Y0039775D01*
X0057916Y0039191D01*
X0055581Y0041526D01*
X0057916Y0041526D01*
X0057916Y0039191D02*
X0055581Y0039191D01*
X0054997Y0039775D01*
X0054997Y0040943D01*
X0055581Y0041526D01*
X0058500Y0037935D02*
X0058500Y0035600D01*
X0058500Y0036768D02*
X0054997Y0036768D01*
X0056165Y0035600D01*
X0046000Y0035600D02*
X0046000Y0037935D01*
X0046000Y0036768D02*
X0042497Y0036768D01*
X0043665Y0035600D01*
X0043081Y0039191D02*
X0042497Y0039775D01*
X0042497Y0040943D01*
X0043081Y0041526D01*
X0045416Y0039191D01*
X0046000Y0039775D01*
X0046000Y0040943D01*
X0045416Y0041526D01*
X0043081Y0041526D01*
X0042497Y0042782D02*
X0046000Y0042782D01*
X0044832Y0042782D02*
X0043665Y0044534D01*
X0044832Y0042782D02*
X0046000Y0044534D01*
X0045416Y0039191D02*
X0043081Y0039191D01*
X0170600Y0013019D02*
X0171184Y0013603D01*
X0172351Y0013603D01*
X0172935Y0013019D01*
X0172935Y0012435D01*
X0172351Y0011851D01*
X0172935Y0011268D01*
X0172935Y0010684D01*
X0172351Y0010100D01*
X0171184Y0010100D01*
X0170600Y0010684D01*
X0171768Y0011851D02*
X0172351Y0011851D01*
X0174191Y0010684D02*
X0174775Y0010100D01*
X0175943Y0010100D01*
X0176526Y0010684D01*
X0176526Y0011268D01*
X0175943Y0011851D01*
X0175359Y0011851D01*
X0175943Y0011851D02*
X0176526Y0012435D01*
X0176526Y0013019D01*
X0175943Y0013603D01*
X0174775Y0013603D01*
X0174191Y0013019D01*
X0177782Y0013019D02*
X0177782Y0010684D01*
X0180117Y0013019D01*
X0180117Y0010684D01*
X0179534Y0010100D01*
X0178366Y0010100D01*
X0177782Y0010684D01*
X0177782Y0013019D02*
X0178366Y0013603D01*
X0179534Y0013603D01*
X0180117Y0013019D01*
D19*
X0187550Y0011800D03*
X0166050Y0011800D03*
M02*
