G75*
%MOIN*%
%OFA0B0*%
%FSLAX25Y25*%
%IPPOS*%
%LPD*%
%AMOC8*
5,1,8,0,0,1.08239X$1,22.5*
%
%ADD10C,0.00000*%
%ADD11OC8,0.05200*%
%ADD12C,0.05200*%
%ADD13C,0.07400*%
%ADD14C,0.05150*%
%ADD15C,0.11220*%
%ADD16C,0.05200*%
%ADD17C,0.05937*%
%ADD18C,0.01600*%
%ADD19C,0.03562*%
D10*
X0001800Y0001800D02*
X0001800Y0198650D01*
X0198650Y0198650D01*
X0198650Y0001800D01*
X0001800Y0001800D01*
D11*
X0044300Y0026800D03*
X0056800Y0026800D03*
X0066800Y0029300D03*
X0076800Y0029300D03*
X0056800Y0056800D03*
X0044300Y0056800D03*
X0139300Y0131800D03*
X0139300Y0141800D03*
X0116800Y0169300D03*
X0106800Y0169300D03*
X0116800Y0181800D03*
X0116800Y0191800D03*
X0104300Y0184300D03*
X0099300Y0191800D03*
X0094300Y0184300D03*
X0139300Y0189300D03*
X0181800Y0191800D03*
X0181800Y0181800D03*
X0181800Y0174300D03*
X0181800Y0144300D03*
X0156800Y0061800D03*
X0151800Y0011800D03*
X0141800Y0011800D03*
X0161800Y0011800D03*
X0191800Y0011800D03*
D12*
X0136800Y0061800D03*
X0139300Y0169300D03*
D13*
X0193800Y0136800D03*
X0193800Y0126800D03*
X0193800Y0116800D03*
X0193800Y0106800D03*
X0193800Y0096800D03*
X0193800Y0086800D03*
X0193800Y0076800D03*
X0193800Y0066800D03*
X0076800Y0011800D03*
X0056800Y0011800D03*
X0041800Y0011800D03*
X0021800Y0011800D03*
X0006800Y0016800D03*
X0006800Y0026800D03*
X0006800Y0036800D03*
X0006800Y0046800D03*
X0006800Y0056800D03*
X0006800Y0066800D03*
X0006800Y0076800D03*
X0006800Y0086800D03*
X0006800Y0096800D03*
X0006800Y0106800D03*
X0006800Y0116800D03*
X0006800Y0126800D03*
X0006800Y0136800D03*
X0071800Y0061800D03*
X0071800Y0051800D03*
X0071800Y0041800D03*
D14*
X0033099Y0161721D03*
X0029950Y0166446D03*
X0026800Y0161721D03*
X0023650Y0166446D03*
X0020501Y0161721D03*
X0058926Y0186800D03*
X0066800Y0186800D03*
X0074674Y0186800D03*
D15*
X0041170Y0181800D03*
X0012430Y0181800D03*
D16*
X0089200Y0141800D02*
X0094400Y0141800D01*
X0094400Y0131800D02*
X0089200Y0131800D01*
X0089200Y0121800D02*
X0094400Y0121800D01*
X0094400Y0111800D02*
X0089200Y0111800D01*
X0089200Y0101800D02*
X0094400Y0101800D01*
X0094400Y0091800D02*
X0089200Y0091800D01*
X0089200Y0081800D02*
X0094400Y0081800D01*
X0094400Y0071800D02*
X0089200Y0071800D01*
X0089200Y0061800D02*
X0094400Y0061800D01*
X0094400Y0051800D02*
X0089200Y0051800D01*
X0089200Y0041800D02*
X0094400Y0041800D01*
X0094400Y0031800D02*
X0089200Y0031800D01*
X0089200Y0021800D02*
X0094400Y0021800D01*
X0094400Y0011800D02*
X0089200Y0011800D01*
X0119200Y0011800D02*
X0124400Y0011800D01*
X0124400Y0021800D02*
X0119200Y0021800D01*
X0119200Y0031800D02*
X0124400Y0031800D01*
X0124400Y0041800D02*
X0119200Y0041800D01*
X0119200Y0051800D02*
X0124400Y0051800D01*
X0124400Y0061800D02*
X0119200Y0061800D01*
X0119200Y0071800D02*
X0124400Y0071800D01*
X0124400Y0081800D02*
X0119200Y0081800D01*
X0119200Y0091800D02*
X0124400Y0091800D01*
X0124400Y0101800D02*
X0119200Y0101800D01*
X0119200Y0111800D02*
X0124400Y0111800D01*
X0124400Y0121800D02*
X0119200Y0121800D01*
X0119200Y0131800D02*
X0124400Y0131800D01*
X0124400Y0141800D02*
X0119200Y0141800D01*
D17*
X0082548Y0186800D03*
X0051052Y0186800D03*
D18*
X0066800Y0186800D02*
X0046800Y0166800D01*
X0046800Y0156800D01*
X0036800Y0156800D01*
X0033099Y0160501D01*
X0033099Y0161721D01*
X0023650Y0166446D02*
X0015796Y0171800D01*
X0006800Y0171800D01*
X0006800Y0146800D01*
X0007781Y0146800D01*
X0036800Y0141800D02*
X0036800Y0056800D01*
X0036800Y0026800D01*
X0044300Y0026800D01*
X0044300Y0014300D01*
X0041800Y0011800D01*
X0056800Y0011800D02*
X0056800Y0026800D01*
X0051800Y0031800D01*
X0051800Y0096800D01*
X0031800Y0101800D02*
X0031800Y0031800D01*
X0016800Y0016800D01*
X0006800Y0016800D01*
X0006800Y0026800D02*
X0021800Y0026800D01*
X0026800Y0031800D01*
X0026800Y0111800D01*
X0071800Y0106800D02*
X0071800Y0081800D01*
X0076800Y0091800D02*
X0076800Y0116800D01*
X0103219Y0143283D02*
X0103219Y0090317D01*
X0104300Y0089236D01*
X0104300Y0024364D01*
X0103219Y0023283D01*
X0103219Y0020317D01*
X0104300Y0019236D01*
X0104300Y0011800D01*
X0106800Y0021800D02*
X0106800Y0071800D01*
X0111800Y0066800D01*
X0106800Y0071800D02*
X0106800Y0091800D01*
X0106800Y0141800D01*
X0109332Y0139268D02*
X0109332Y0094332D01*
X0110381Y0093283D01*
X0110381Y0081800D01*
X0114300Y0076800D02*
X0114300Y0149236D01*
X0115381Y0150317D01*
X0115381Y0153283D01*
X0113283Y0155381D01*
X0112981Y0155381D01*
X0111800Y0156562D01*
X0111800Y0151800D02*
X0111800Y0141736D01*
X0109332Y0139268D01*
X0104300Y0144364D02*
X0103219Y0143283D01*
X0104300Y0144364D02*
X0104300Y0146800D01*
X0099300Y0151800D02*
X0099300Y0171800D01*
X0104300Y0184300D02*
X0106800Y0184300D01*
X0116800Y0169300D01*
X0121800Y0169300D01*
X0121800Y0141800D01*
X0116800Y0169300D02*
X0139300Y0169300D01*
X0151800Y0169300D01*
X0151800Y0191800D01*
X0181800Y0191800D01*
X0181800Y0181800D02*
X0181800Y0174300D01*
X0171800Y0176800D02*
X0171800Y0076800D01*
X0171800Y0031800D01*
X0166362Y0036362D02*
X0134323Y0036362D01*
X0129760Y0031800D01*
X0121800Y0031800D01*
X0121800Y0041800D02*
X0167000Y0041800D01*
X0167000Y0073141D01*
X0164638Y0075504D01*
X0164638Y0098283D01*
X0166800Y0100446D01*
X0166800Y0106800D01*
X0168219Y0096800D02*
X0168219Y0075317D01*
X0169400Y0074136D01*
X0169400Y0039400D01*
X0166362Y0036362D01*
X0186800Y0021800D02*
X0186800Y0079800D01*
X0193800Y0086800D01*
X0136800Y0061800D02*
X0121800Y0061800D01*
X0121800Y0071800D02*
X0119300Y0071800D01*
X0114300Y0076800D01*
X0084300Y0076800D02*
X0084300Y0039300D01*
X0091800Y0031800D01*
X0076800Y0029300D02*
X0076800Y0011800D01*
X0121800Y0011800D02*
X0136800Y0011800D01*
X0136800Y0030381D01*
X0141800Y0026800D02*
X0141800Y0011800D01*
X0151800Y0011800D02*
X0161800Y0011800D01*
X0044300Y0056800D02*
X0044300Y0066800D01*
X0131800Y0179300D02*
X0131800Y0191800D01*
X0116800Y0191800D01*
X0099300Y0191800D01*
X0081800Y0191800D01*
X0081369Y0191369D01*
X0080656Y0191369D01*
X0076087Y0186800D01*
X0074674Y0186800D01*
D19*
X0099300Y0171800D03*
X0111800Y0156562D03*
X0111800Y0151800D03*
X0104300Y0146800D03*
X0099300Y0151800D03*
X0106800Y0141800D03*
X0076800Y0116800D03*
X0071800Y0106800D03*
X0076800Y0091800D03*
X0071800Y0081800D03*
X0084300Y0076800D03*
X0106800Y0091800D03*
X0110381Y0081800D03*
X0111800Y0066800D03*
X0136800Y0030381D03*
X0141800Y0026800D03*
X0171800Y0031800D03*
X0186800Y0021800D03*
X0171800Y0076800D03*
X0168219Y0096800D03*
X0166800Y0106800D03*
X0171800Y0176800D03*
X0131800Y0179300D03*
X0051800Y0096800D03*
X0031800Y0101800D03*
X0026800Y0111800D03*
X0036800Y0141800D03*
X0007781Y0146800D03*
X0044300Y0066800D03*
X0036800Y0056800D03*
X0104300Y0011800D03*
X0106800Y0021800D03*
M02*
